ISO-10303-21;
HEADER;
/* Generated by software containing ST-Developer
 * from STEP Tools, Inc. (www.steptools.com) 
 */

FILE_DESCRIPTION(
/* description */ (''),
/* implementation_level */ '2;1');

FILE_NAME(
/* name */ 'corepad (Assembly).step',
/* time_stamp */ '2026-07-25T08:14:10-05:00',
/* author */ (''),
/* organization */ (''),
/* preprocessor_version */ 'ST-DEVELOPER v20.1',
/* originating_system */ 'Autodesk Translation Framework v15.8.0.0',
/* authorisation */ '');

FILE_SCHEMA (('AUTOMOTIVE_DESIGN { 1 0 10303 214 3 1 1 }'));
ENDSEC;

DATA;
#10=MECHANICAL_DESIGN_GEOMETRIC_PRESENTATION_REPRESENTATION('',(#23,#24),
#1693);
#11=ITEM_DEFINED_TRANSFORMATION($,$,#1035,#1119);
#12=ITEM_DEFINED_TRANSFORMATION($,$,#1060,#1120);
#13=(
REPRESENTATION_RELATIONSHIP($,$,#1707,#1706)
REPRESENTATION_RELATIONSHIP_WITH_TRANSFORMATION(#11)
SHAPE_REPRESENTATION_RELATIONSHIP()
);
#14=(
REPRESENTATION_RELATIONSHIP($,$,#1708,#1706)
REPRESENTATION_RELATIONSHIP_WITH_TRANSFORMATION(#12)
SHAPE_REPRESENTATION_RELATIONSHIP()
);
#15=CONTEXT_DEPENDENT_SHAPE_REPRESENTATION(#13,#1704);
#16=CONTEXT_DEPENDENT_SHAPE_REPRESENTATION(#14,#1705);
#17=NEXT_ASSEMBLY_USAGE_OCCURRENCE('corepad v2:1','corepad v2:1',
'corepad v2:1',#1710,#1711,'corepad v2:1');
#18=NEXT_ASSEMBLY_USAGE_OCCURRENCE(
'plate-2026-06-12T22_15_53.887Z v2:1',
'plate-2026-06-12T22_15_53.887Z v2:1',
'plate-2026-06-12T22_15_53.887Z v2:1',#1710,#1712,
'plate-2026-06-12T22_15_53.887Z v2:1');
#19=SHAPE_REPRESENTATION_RELATIONSHIP('SRR','None',#1707,#21);
#20=SHAPE_REPRESENTATION_RELATIONSHIP('SRR','None',#1708,#22);
#21=ADVANCED_BREP_SHAPE_REPRESENTATION('',(#25),#1691);
#22=ADVANCED_BREP_SHAPE_REPRESENTATION('',(#26),#1692);
#23=STYLED_ITEM('',(#1725),#25);
#24=STYLED_ITEM('',(#1725),#26);
#25=MANIFOLD_SOLID_BREP('Body1',#1009);
#26=MANIFOLD_SOLID_BREP('Body1',#1010);
#27=CYLINDRICAL_SURFACE('',#1046,1.45);
#28=CYLINDRICAL_SURFACE('',#1048,1.45);
#29=CYLINDRICAL_SURFACE('',#1052,1.45);
#30=CYLINDRICAL_SURFACE('',#1054,1.45);
#31=CYLINDRICAL_SURFACE('',#1069,0.5);
#32=CYLINDRICAL_SURFACE('',#1073,0.499999999999998);
#33=CYLINDRICAL_SURFACE('',#1077,0.5);
#34=CYLINDRICAL_SURFACE('',#1081,0.499999999999998);
#35=CYLINDRICAL_SURFACE('',#1085,0.5);
#36=CYLINDRICAL_SURFACE('',#1089,0.499999999999998);
#37=CYLINDRICAL_SURFACE('',#1093,0.5);
#38=CYLINDRICAL_SURFACE('',#1097,0.499999999999998);
#39=CYLINDRICAL_SURFACE('',#1101,0.5);
#40=CYLINDRICAL_SURFACE('',#1105,0.5);
#41=CYLINDRICAL_SURFACE('',#1109,0.5);
#42=CYLINDRICAL_SURFACE('',#1113,0.5);
#43=FACE_BOUND('',#143,.T.);
#44=FACE_BOUND('',#144,.T.);
#45=FACE_BOUND('',#145,.T.);
#46=FACE_BOUND('',#146,.T.);
#47=FACE_BOUND('',#161,.T.);
#48=FACE_BOUND('',#162,.T.);
#49=FACE_BOUND('',#163,.T.);
#50=FACE_BOUND('',#164,.T.);
#51=FACE_BOUND('',#198,.T.);
#52=FACE_BOUND('',#199,.T.);
#53=FACE_BOUND('',#200,.T.);
#54=FACE_BOUND('',#201,.T.);
#55=FACE_BOUND('',#203,.T.);
#56=FACE_BOUND('',#204,.T.);
#57=FACE_BOUND('',#205,.T.);
#58=FACE_BOUND('',#206,.T.);
#59=CIRCLE('',#1038,1.45);
#60=CIRCLE('',#1039,1.45);
#61=CIRCLE('',#1040,1.45);
#62=CIRCLE('',#1041,1.45);
#63=CIRCLE('',#1047,1.45);
#64=CIRCLE('',#1049,1.45);
#65=CIRCLE('',#1053,1.45);
#66=CIRCLE('',#1055,1.45);
#67=CIRCLE('',#1070,0.5);
#68=CIRCLE('',#1071,0.5);
#69=CIRCLE('',#1074,0.499999999999998);
#70=CIRCLE('',#1075,0.499999999999998);
#71=CIRCLE('',#1078,0.5);
#72=CIRCLE('',#1079,0.5);
#73=CIRCLE('',#1082,0.499999999999998);
#74=CIRCLE('',#1083,0.499999999999998);
#75=CIRCLE('',#1086,0.5);
#76=CIRCLE('',#1087,0.5);
#77=CIRCLE('',#1090,0.499999999999998);
#78=CIRCLE('',#1091,0.499999999999998);
#79=CIRCLE('',#1094,0.5);
#80=CIRCLE('',#1095,0.5);
#81=CIRCLE('',#1098,0.499999999999998);
#82=CIRCLE('',#1099,0.499999999999998);
#83=CIRCLE('',#1102,0.5);
#84=CIRCLE('',#1103,0.5);
#85=CIRCLE('',#1106,0.5);
#86=CIRCLE('',#1107,0.5);
#87=CIRCLE('',#1110,0.5);
#88=CIRCLE('',#1111,0.5);
#89=CIRCLE('',#1114,0.5);
#90=CIRCLE('',#1115,0.5);
#91=FACE_OUTER_BOUND('',#141,.T.);
#92=FACE_OUTER_BOUND('',#142,.T.);
#93=FACE_OUTER_BOUND('',#147,.T.);
#94=FACE_OUTER_BOUND('',#148,.T.);
#95=FACE_OUTER_BOUND('',#149,.T.);
#96=FACE_OUTER_BOUND('',#150,.T.);
#97=FACE_OUTER_BOUND('',#151,.T.);
#98=FACE_OUTER_BOUND('',#152,.T.);
#99=FACE_OUTER_BOUND('',#153,.T.);
#100=FACE_OUTER_BOUND('',#154,.T.);
#101=FACE_OUTER_BOUND('',#155,.T.);
#102=FACE_OUTER_BOUND('',#156,.T.);
#103=FACE_OUTER_BOUND('',#157,.T.);
#104=FACE_OUTER_BOUND('',#158,.T.);
#105=FACE_OUTER_BOUND('',#159,.T.);
#106=FACE_OUTER_BOUND('',#160,.T.);
#107=FACE_OUTER_BOUND('',#165,.T.);
#108=FACE_OUTER_BOUND('',#166,.T.);
#109=FACE_OUTER_BOUND('',#167,.T.);
#110=FACE_OUTER_BOUND('',#168,.T.);
#111=FACE_OUTER_BOUND('',#169,.T.);
#112=FACE_OUTER_BOUND('',#170,.T.);
#113=FACE_OUTER_BOUND('',#171,.T.);
#114=FACE_OUTER_BOUND('',#172,.T.);
#115=FACE_OUTER_BOUND('',#173,.T.);
#116=FACE_OUTER_BOUND('',#174,.T.);
#117=FACE_OUTER_BOUND('',#175,.T.);
#118=FACE_OUTER_BOUND('',#176,.T.);
#119=FACE_OUTER_BOUND('',#177,.T.);
#120=FACE_OUTER_BOUND('',#178,.T.);
#121=FACE_OUTER_BOUND('',#179,.T.);
#122=FACE_OUTER_BOUND('',#180,.T.);
#123=FACE_OUTER_BOUND('',#181,.T.);
#124=FACE_OUTER_BOUND('',#182,.T.);
#125=FACE_OUTER_BOUND('',#183,.T.);
#126=FACE_OUTER_BOUND('',#184,.T.);
#127=FACE_OUTER_BOUND('',#185,.T.);
#128=FACE_OUTER_BOUND('',#186,.T.);
#129=FACE_OUTER_BOUND('',#187,.T.);
#130=FACE_OUTER_BOUND('',#188,.T.);
#131=FACE_OUTER_BOUND('',#189,.T.);
#132=FACE_OUTER_BOUND('',#190,.T.);
#133=FACE_OUTER_BOUND('',#191,.T.);
#134=FACE_OUTER_BOUND('',#192,.T.);
#135=FACE_OUTER_BOUND('',#193,.T.);
#136=FACE_OUTER_BOUND('',#194,.T.);
#137=FACE_OUTER_BOUND('',#195,.T.);
#138=FACE_OUTER_BOUND('',#196,.T.);
#139=FACE_OUTER_BOUND('',#197,.T.);
#140=FACE_OUTER_BOUND('',#202,.T.);
#141=EDGE_LOOP('',(#649,#650,#651,#652));
#142=EDGE_LOOP('',(#653,#654,#655,#656,#657,#658,#659,#660,#661,#662));
#143=EDGE_LOOP('',(#663));
#144=EDGE_LOOP('',(#664));
#145=EDGE_LOOP('',(#665));
#146=EDGE_LOOP('',(#666));
#147=EDGE_LOOP('',(#667,#668,#669,#670,#671,#672,#673,#674));
#148=EDGE_LOOP('',(#675,#676,#677,#678,#679,#680));
#149=EDGE_LOOP('',(#681,#682,#683,#684));
#150=EDGE_LOOP('',(#685,#686,#687,#688));
#151=EDGE_LOOP('',(#689,#690,#691,#692));
#152=EDGE_LOOP('',(#693,#694,#695,#696));
#153=EDGE_LOOP('',(#697,#698,#699,#700));
#154=EDGE_LOOP('',(#701,#702,#703,#704));
#155=EDGE_LOOP('',(#705,#706,#707,#708));
#156=EDGE_LOOP('',(#709,#710,#711,#712));
#157=EDGE_LOOP('',(#713,#714,#715,#716));
#158=EDGE_LOOP('',(#717,#718,#719,#720));
#159=EDGE_LOOP('',(#721,#722,#723,#724));
#160=EDGE_LOOP('',(#725,#726,#727,#728));
#161=EDGE_LOOP('',(#729));
#162=EDGE_LOOP('',(#730));
#163=EDGE_LOOP('',(#731));
#164=EDGE_LOOP('',(#732));
#165=EDGE_LOOP('',(#733,#734,#735,#736));
#166=EDGE_LOOP('',(#737,#738,#739,#740));
#167=EDGE_LOOP('',(#741,#742,#743,#744));
#168=EDGE_LOOP('',(#745,#746,#747,#748));
#169=EDGE_LOOP('',(#749,#750,#751,#752));
#170=EDGE_LOOP('',(#753,#754,#755,#756));
#171=EDGE_LOOP('',(#757,#758,#759,#760));
#172=EDGE_LOOP('',(#761,#762,#763,#764));
#173=EDGE_LOOP('',(#765,#766,#767,#768));
#174=EDGE_LOOP('',(#769,#770,#771,#772));
#175=EDGE_LOOP('',(#773,#774,#775,#776));
#176=EDGE_LOOP('',(#777,#778,#779,#780));
#177=EDGE_LOOP('',(#781,#782,#783,#784));
#178=EDGE_LOOP('',(#785,#786,#787,#788));
#179=EDGE_LOOP('',(#789,#790,#791,#792));
#180=EDGE_LOOP('',(#793,#794,#795,#796));
#181=EDGE_LOOP('',(#797,#798,#799,#800));
#182=EDGE_LOOP('',(#801,#802,#803,#804));
#183=EDGE_LOOP('',(#805,#806,#807,#808));
#184=EDGE_LOOP('',(#809,#810,#811,#812));
#185=EDGE_LOOP('',(#813,#814,#815,#816));
#186=EDGE_LOOP('',(#817,#818,#819,#820));
#187=EDGE_LOOP('',(#821,#822,#823,#824));
#188=EDGE_LOOP('',(#825,#826,#827,#828));
#189=EDGE_LOOP('',(#829,#830,#831,#832));
#190=EDGE_LOOP('',(#833,#834,#835,#836));
#191=EDGE_LOOP('',(#837,#838,#839,#840));
#192=EDGE_LOOP('',(#841,#842,#843,#844));
#193=EDGE_LOOP('',(#845,#846,#847,#848));
#194=EDGE_LOOP('',(#849,#850,#851,#852));
#195=EDGE_LOOP('',(#853,#854,#855,#856));
#196=EDGE_LOOP('',(#857,#858,#859,#860));
#197=EDGE_LOOP('',(#861,#862,#863,#864));
#198=EDGE_LOOP('',(#865,#866,#867,#868));
#199=EDGE_LOOP('',(#869,#870,#871,#872,#873,#874,#875,#876));
#200=EDGE_LOOP('',(#877,#878,#879,#880,#881,#882,#883,#884));
#201=EDGE_LOOP('',(#885,#886,#887,#888,#889,#890,#891,#892));
#202=EDGE_LOOP('',(#893,#894,#895,#896));
#203=EDGE_LOOP('',(#897,#898,#899,#900));
#204=EDGE_LOOP('',(#901,#902,#903,#904,#905,#906,#907,#908));
#205=EDGE_LOOP('',(#909,#910,#911,#912,#913,#914,#915,#916));
#206=EDGE_LOOP('',(#917,#918,#919,#920,#921,#922,#923,#924));
#207=LINE('',#1406,#313);
#208=LINE('',#1408,#314);
#209=LINE('',#1410,#315);
#210=LINE('',#1411,#316);
#211=LINE('',#1415,#317);
#212=LINE('',#1417,#318);
#213=LINE('',#1419,#319);
#214=LINE('',#1421,#320);
#215=LINE('',#1423,#321);
#216=LINE('',#1424,#322);
#217=LINE('',#1426,#323);
#218=LINE('',#1428,#324);
#219=LINE('',#1429,#325);
#220=LINE('',#1440,#326);
#221=LINE('',#1441,#327);
#222=LINE('',#1443,#328);
#223=LINE('',#1445,#329);
#224=LINE('',#1446,#330);
#225=LINE('',#1449,#331);
#226=LINE('',#1451,#332);
#227=LINE('',#1453,#333);
#228=LINE('',#1454,#334);
#229=LINE('',#1456,#335);
#230=LINE('',#1457,#336);
#231=LINE('',#1461,#337);
#232=LINE('',#1465,#338);
#233=LINE('',#1468,#339);
#234=LINE('',#1472,#340);
#235=LINE('',#1476,#341);
#236=LINE('',#1480,#342);
#237=LINE('',#1481,#343);
#238=LINE('',#1484,#344);
#239=LINE('',#1485,#345);
#240=LINE('',#1487,#346);
#241=LINE('',#1493,#347);
#242=LINE('',#1495,#348);
#243=LINE('',#1497,#349);
#244=LINE('',#1498,#350);
#245=LINE('',#1501,#351);
#246=LINE('',#1503,#352);
#247=LINE('',#1504,#353);
#248=LINE('',#1507,#354);
#249=LINE('',#1509,#355);
#250=LINE('',#1510,#356);
#251=LINE('',#1512,#357);
#252=LINE('',#1513,#358);
#253=LINE('',#1517,#359);
#254=LINE('',#1519,#360);
#255=LINE('',#1521,#361);
#256=LINE('',#1522,#362);
#257=LINE('',#1525,#363);
#258=LINE('',#1527,#364);
#259=LINE('',#1528,#365);
#260=LINE('',#1531,#366);
#261=LINE('',#1533,#367);
#262=LINE('',#1534,#368);
#263=LINE('',#1536,#369);
#264=LINE('',#1537,#370);
#265=LINE('',#1543,#371);
#266=LINE('',#1546,#372);
#267=LINE('',#1549,#373);
#268=LINE('',#1551,#374);
#269=LINE('',#1552,#375);
#270=LINE('',#1558,#376);
#271=LINE('',#1561,#377);
#272=LINE('',#1563,#378);
#273=LINE('',#1564,#379);
#274=LINE('',#1570,#380);
#275=LINE('',#1573,#381);
#276=LINE('',#1575,#382);
#277=LINE('',#1576,#383);
#278=LINE('',#1582,#384);
#279=LINE('',#1584,#385);
#280=LINE('',#1585,#386);
#281=LINE('',#1591,#387);
#282=LINE('',#1594,#388);
#283=LINE('',#1597,#389);
#284=LINE('',#1599,#390);
#285=LINE('',#1600,#391);
#286=LINE('',#1606,#392);
#287=LINE('',#1609,#393);
#288=LINE('',#1611,#394);
#289=LINE('',#1612,#395);
#290=LINE('',#1618,#396);
#291=LINE('',#1621,#397);
#292=LINE('',#1623,#398);
#293=LINE('',#1624,#399);
#294=LINE('',#1630,#400);
#295=LINE('',#1632,#401);
#296=LINE('',#1633,#402);
#297=LINE('',#1639,#403);
#298=LINE('',#1642,#404);
#299=LINE('',#1645,#405);
#300=LINE('',#1647,#406);
#301=LINE('',#1648,#407);
#302=LINE('',#1654,#408);
#303=LINE('',#1657,#409);
#304=LINE('',#1659,#410);
#305=LINE('',#1660,#411);
#306=LINE('',#1666,#412);
#307=LINE('',#1669,#413);
#308=LINE('',#1671,#414);
#309=LINE('',#1672,#415);
#310=LINE('',#1678,#416);
#311=LINE('',#1680,#417);
#312=LINE('',#1681,#418);
#313=VECTOR('',#1127,10.);
#314=VECTOR('',#1128,10.);
#315=VECTOR('',#1129,10.);
#316=VECTOR('',#1130,10.);
#317=VECTOR('',#1133,10.);
#318=VECTOR('',#1134,10.);
#319=VECTOR('',#1135,10.);
#320=VECTOR('',#1136,10.);
#321=VECTOR('',#1137,10.);
#322=VECTOR('',#1138,10.);
#323=VECTOR('',#1139,10.);
#324=VECTOR('',#1140,10.);
#325=VECTOR('',#1141,10.);
#326=VECTOR('',#1152,10.);
#327=VECTOR('',#1153,10.);
#328=VECTOR('',#1154,10.);
#329=VECTOR('',#1155,10.);
#330=VECTOR('',#1156,10.);
#331=VECTOR('',#1159,10.);
#332=VECTOR('',#1160,10.);
#333=VECTOR('',#1161,10.);
#334=VECTOR('',#1162,10.);
#335=VECTOR('',#1165,10.);
#336=VECTOR('',#1166,10.);
#337=VECTOR('',#1171,1.45);
#338=VECTOR('',#1176,1.45);
#339=VECTOR('',#1181,10.);
#340=VECTOR('',#1186,1.45);
#341=VECTOR('',#1191,1.45);
#342=VECTOR('',#1196,10.);
#343=VECTOR('',#1197,10.);
#344=VECTOR('',#1200,10.);
#345=VECTOR('',#1201,10.);
#346=VECTOR('',#1204,10.);
#347=VECTOR('',#1211,10.);
#348=VECTOR('',#1212,10.);
#349=VECTOR('',#1213,10.);
#350=VECTOR('',#1214,10.);
#351=VECTOR('',#1217,10.);
#352=VECTOR('',#1218,10.);
#353=VECTOR('',#1219,10.);
#354=VECTOR('',#1222,10.);
#355=VECTOR('',#1223,10.);
#356=VECTOR('',#1224,10.);
#357=VECTOR('',#1227,10.);
#358=VECTOR('',#1228,10.);
#359=VECTOR('',#1231,10.);
#360=VECTOR('',#1232,10.);
#361=VECTOR('',#1233,10.);
#362=VECTOR('',#1234,10.);
#363=VECTOR('',#1237,10.);
#364=VECTOR('',#1238,10.);
#365=VECTOR('',#1239,10.);
#366=VECTOR('',#1242,10.);
#367=VECTOR('',#1243,10.);
#368=VECTOR('',#1244,10.);
#369=VECTOR('',#1247,10.);
#370=VECTOR('',#1248,10.);
#371=VECTOR('',#1253,10.);
#372=VECTOR('',#1256,10.);
#373=VECTOR('',#1259,10.);
#374=VECTOR('',#1260,10.);
#375=VECTOR('',#1261,10.);
#376=VECTOR('',#1268,10.);
#377=VECTOR('',#1271,10.);
#378=VECTOR('',#1272,10.);
#379=VECTOR('',#1273,10.);
#380=VECTOR('',#1280,10.);
#381=VECTOR('',#1283,10.);
#382=VECTOR('',#1284,10.);
#383=VECTOR('',#1285,10.);
#384=VECTOR('',#1292,10.);
#385=VECTOR('',#1295,10.);
#386=VECTOR('',#1296,10.);
#387=VECTOR('',#1301,10.);
#388=VECTOR('',#1304,10.);
#389=VECTOR('',#1307,10.);
#390=VECTOR('',#1308,10.);
#391=VECTOR('',#1309,10.);
#392=VECTOR('',#1316,10.);
#393=VECTOR('',#1319,10.);
#394=VECTOR('',#1320,10.);
#395=VECTOR('',#1321,10.);
#396=VECTOR('',#1328,10.);
#397=VECTOR('',#1331,10.);
#398=VECTOR('',#1332,10.);
#399=VECTOR('',#1333,10.);
#400=VECTOR('',#1340,10.);
#401=VECTOR('',#1343,10.);
#402=VECTOR('',#1344,10.);
#403=VECTOR('',#1349,10.);
#404=VECTOR('',#1352,10.);
#405=VECTOR('',#1355,10.);
#406=VECTOR('',#1356,10.);
#407=VECTOR('',#1357,10.);
#408=VECTOR('',#1364,10.);
#409=VECTOR('',#1367,10.);
#410=VECTOR('',#1368,10.);
#411=VECTOR('',#1369,10.);
#412=VECTOR('',#1376,10.);
#413=VECTOR('',#1379,10.);
#414=VECTOR('',#1380,10.);
#415=VECTOR('',#1381,10.);
#416=VECTOR('',#1388,10.);
#417=VECTOR('',#1391,10.);
#418=VECTOR('',#1392,10.);
#419=VERTEX_POINT('',#1404);
#420=VERTEX_POINT('',#1405);
#421=VERTEX_POINT('',#1407);
#422=VERTEX_POINT('',#1409);
#423=VERTEX_POINT('',#1413);
#424=VERTEX_POINT('',#1414);
#425=VERTEX_POINT('',#1416);
#426=VERTEX_POINT('',#1418);
#427=VERTEX_POINT('',#1420);
#428=VERTEX_POINT('',#1422);
#429=VERTEX_POINT('',#1425);
#430=VERTEX_POINT('',#1427);
#431=VERTEX_POINT('',#1430);
#432=VERTEX_POINT('',#1432);
#433=VERTEX_POINT('',#1434);
#434=VERTEX_POINT('',#1436);
#435=VERTEX_POINT('',#1439);
#436=VERTEX_POINT('',#1442);
#437=VERTEX_POINT('',#1444);
#438=VERTEX_POINT('',#1448);
#439=VERTEX_POINT('',#1450);
#440=VERTEX_POINT('',#1452);
#441=VERTEX_POINT('',#1460);
#442=VERTEX_POINT('',#1464);
#443=VERTEX_POINT('',#1471);
#444=VERTEX_POINT('',#1475);
#445=VERTEX_POINT('',#1479);
#446=VERTEX_POINT('',#1483);
#447=VERTEX_POINT('',#1491);
#448=VERTEX_POINT('',#1492);
#449=VERTEX_POINT('',#1494);
#450=VERTEX_POINT('',#1496);
#451=VERTEX_POINT('',#1500);
#452=VERTEX_POINT('',#1502);
#453=VERTEX_POINT('',#1506);
#454=VERTEX_POINT('',#1508);
#455=VERTEX_POINT('',#1515);
#456=VERTEX_POINT('',#1516);
#457=VERTEX_POINT('',#1518);
#458=VERTEX_POINT('',#1520);
#459=VERTEX_POINT('',#1524);
#460=VERTEX_POINT('',#1526);
#461=VERTEX_POINT('',#1530);
#462=VERTEX_POINT('',#1532);
#463=VERTEX_POINT('',#1539);
#464=VERTEX_POINT('',#1540);
#465=VERTEX_POINT('',#1542);
#466=VERTEX_POINT('',#1544);
#467=VERTEX_POINT('',#1548);
#468=VERTEX_POINT('',#1550);
#469=VERTEX_POINT('',#1554);
#470=VERTEX_POINT('',#1556);
#471=VERTEX_POINT('',#1560);
#472=VERTEX_POINT('',#1562);
#473=VERTEX_POINT('',#1566);
#474=VERTEX_POINT('',#1568);
#475=VERTEX_POINT('',#1572);
#476=VERTEX_POINT('',#1574);
#477=VERTEX_POINT('',#1578);
#478=VERTEX_POINT('',#1580);
#479=VERTEX_POINT('',#1587);
#480=VERTEX_POINT('',#1588);
#481=VERTEX_POINT('',#1590);
#482=VERTEX_POINT('',#1592);
#483=VERTEX_POINT('',#1596);
#484=VERTEX_POINT('',#1598);
#485=VERTEX_POINT('',#1602);
#486=VERTEX_POINT('',#1604);
#487=VERTEX_POINT('',#1608);
#488=VERTEX_POINT('',#1610);
#489=VERTEX_POINT('',#1614);
#490=VERTEX_POINT('',#1616);
#491=VERTEX_POINT('',#1620);
#492=VERTEX_POINT('',#1622);
#493=VERTEX_POINT('',#1626);
#494=VERTEX_POINT('',#1628);
#495=VERTEX_POINT('',#1635);
#496=VERTEX_POINT('',#1636);
#497=VERTEX_POINT('',#1638);
#498=VERTEX_POINT('',#1640);
#499=VERTEX_POINT('',#1644);
#500=VERTEX_POINT('',#1646);
#501=VERTEX_POINT('',#1650);
#502=VERTEX_POINT('',#1652);
#503=VERTEX_POINT('',#1656);
#504=VERTEX_POINT('',#1658);
#505=VERTEX_POINT('',#1662);
#506=VERTEX_POINT('',#1664);
#507=VERTEX_POINT('',#1668);
#508=VERTEX_POINT('',#1670);
#509=VERTEX_POINT('',#1674);
#510=VERTEX_POINT('',#1676);
#511=EDGE_CURVE('',#419,#420,#207,.T.);
#512=EDGE_CURVE('',#421,#419,#208,.T.);
#513=EDGE_CURVE('',#421,#422,#209,.T.);
#514=EDGE_CURVE('',#420,#422,#210,.T.);
#515=EDGE_CURVE('',#423,#424,#211,.T.);
#516=EDGE_CURVE('',#424,#425,#212,.T.);
#517=EDGE_CURVE('',#425,#426,#213,.T.);
#518=EDGE_CURVE('',#426,#427,#214,.T.);
#519=EDGE_CURVE('',#427,#428,#215,.T.);
#520=EDGE_CURVE('',#428,#419,#216,.T.);
#521=EDGE_CURVE('',#420,#429,#217,.T.);
#522=EDGE_CURVE('',#429,#430,#218,.T.);
#523=EDGE_CURVE('',#430,#423,#219,.T.);
#524=EDGE_CURVE('',#431,#431,#59,.T.);
#525=EDGE_CURVE('',#432,#432,#60,.T.);
#526=EDGE_CURVE('',#433,#433,#61,.T.);
#527=EDGE_CURVE('',#434,#434,#62,.T.);
#528=EDGE_CURVE('',#424,#435,#220,.T.);
#529=EDGE_CURVE('',#435,#421,#221,.T.);
#530=EDGE_CURVE('',#436,#428,#222,.T.);
#531=EDGE_CURVE('',#436,#437,#223,.T.);
#532=EDGE_CURVE('',#437,#425,#224,.T.);
#533=EDGE_CURVE('',#438,#435,#225,.T.);
#534=EDGE_CURVE('',#439,#438,#226,.T.);
#535=EDGE_CURVE('',#440,#439,#227,.T.);
#536=EDGE_CURVE('',#422,#440,#228,.T.);
#537=EDGE_CURVE('',#438,#423,#229,.T.);
#538=EDGE_CURVE('',#439,#430,#230,.T.);
#539=EDGE_CURVE('',#431,#441,#231,.T.);
#540=EDGE_CURVE('',#441,#441,#63,.T.);
#541=EDGE_CURVE('',#432,#442,#232,.T.);
#542=EDGE_CURVE('',#442,#442,#64,.T.);
#543=EDGE_CURVE('',#440,#429,#233,.T.);
#544=EDGE_CURVE('',#433,#443,#234,.T.);
#545=EDGE_CURVE('',#443,#443,#65,.T.);
#546=EDGE_CURVE('',#434,#444,#235,.T.);
#547=EDGE_CURVE('',#444,#444,#66,.T.);
#548=EDGE_CURVE('',#445,#436,#236,.T.);
#549=EDGE_CURVE('',#445,#427,#237,.T.);
#550=EDGE_CURVE('',#446,#445,#238,.T.);
#551=EDGE_CURVE('',#446,#426,#239,.T.);
#552=EDGE_CURVE('',#437,#446,#240,.T.);
#553=EDGE_CURVE('',#447,#448,#241,.T.);
#554=EDGE_CURVE('',#449,#447,#242,.T.);
#555=EDGE_CURVE('',#450,#449,#243,.T.);
#556=EDGE_CURVE('',#450,#448,#244,.T.);
#557=EDGE_CURVE('',#448,#451,#245,.T.);
#558=EDGE_CURVE('',#452,#450,#246,.T.);
#559=EDGE_CURVE('',#452,#451,#247,.T.);
#560=EDGE_CURVE('',#451,#453,#248,.T.);
#561=EDGE_CURVE('',#454,#452,#249,.T.);
#562=EDGE_CURVE('',#454,#453,#250,.T.);
#563=EDGE_CURVE('',#453,#447,#251,.T.);
#564=EDGE_CURVE('',#449,#454,#252,.T.);
#565=EDGE_CURVE('',#455,#456,#253,.T.);
#566=EDGE_CURVE('',#456,#457,#254,.T.);
#567=EDGE_CURVE('',#458,#457,#255,.T.);
#568=EDGE_CURVE('',#455,#458,#256,.T.);
#569=EDGE_CURVE('',#459,#455,#257,.T.);
#570=EDGE_CURVE('',#460,#458,#258,.T.);
#571=EDGE_CURVE('',#459,#460,#259,.T.);
#572=EDGE_CURVE('',#461,#459,#260,.T.);
#573=EDGE_CURVE('',#462,#460,#261,.T.);
#574=EDGE_CURVE('',#461,#462,#262,.T.);
#575=EDGE_CURVE('',#456,#461,#263,.T.);
#576=EDGE_CURVE('',#457,#462,#264,.T.);
#577=EDGE_CURVE('',#463,#464,#67,.T.);
#578=EDGE_CURVE('',#463,#465,#265,.T.);
#579=EDGE_CURVE('',#466,#465,#68,.T.);
#580=EDGE_CURVE('',#464,#466,#266,.T.);
#581=EDGE_CURVE('',#464,#467,#267,.T.);
#582=EDGE_CURVE('',#468,#466,#268,.T.);
#583=EDGE_CURVE('',#467,#468,#269,.T.);
#584=EDGE_CURVE('',#467,#469,#69,.T.);
#585=EDGE_CURVE('',#470,#468,#70,.T.);
#586=EDGE_CURVE('',#469,#470,#270,.T.);
#587=EDGE_CURVE('',#469,#471,#271,.T.);
#588=EDGE_CURVE('',#472,#470,#272,.T.);
#589=EDGE_CURVE('',#471,#472,#273,.T.);
#590=EDGE_CURVE('',#471,#473,#71,.T.);
#591=EDGE_CURVE('',#474,#472,#72,.T.);
#592=EDGE_CURVE('',#473,#474,#274,.T.);
#593=EDGE_CURVE('',#475,#473,#275,.T.);
#594=EDGE_CURVE('',#476,#474,#276,.T.);
#595=EDGE_CURVE('',#475,#476,#277,.T.);
#596=EDGE_CURVE('',#475,#477,#73,.T.);
#597=EDGE_CURVE('',#478,#476,#74,.T.);
#598=EDGE_CURVE('',#477,#478,#278,.T.);
#599=EDGE_CURVE('',#463,#477,#279,.T.);
#600=EDGE_CURVE('',#465,#478,#280,.T.);
#601=EDGE_CURVE('',#479,#480,#75,.T.);
#602=EDGE_CURVE('',#479,#481,#281,.T.);
#603=EDGE_CURVE('',#482,#481,#76,.T.);
#604=EDGE_CURVE('',#480,#482,#282,.T.);
#605=EDGE_CURVE('',#480,#483,#283,.T.);
#606=EDGE_CURVE('',#484,#482,#284,.T.);
#607=EDGE_CURVE('',#483,#484,#285,.T.);
#608=EDGE_CURVE('',#483,#485,#77,.T.);
#609=EDGE_CURVE('',#486,#484,#78,.T.);
#610=EDGE_CURVE('',#485,#486,#286,.T.);
#611=EDGE_CURVE('',#485,#487,#287,.T.);
#612=EDGE_CURVE('',#488,#486,#288,.T.);
#613=EDGE_CURVE('',#487,#488,#289,.T.);
#614=EDGE_CURVE('',#487,#489,#79,.T.);
#615=EDGE_CURVE('',#490,#488,#80,.T.);
#616=EDGE_CURVE('',#489,#490,#290,.T.);
#617=EDGE_CURVE('',#491,#489,#291,.T.);
#618=EDGE_CURVE('',#492,#490,#292,.T.);
#619=EDGE_CURVE('',#491,#492,#293,.T.);
#620=EDGE_CURVE('',#491,#493,#81,.T.);
#621=EDGE_CURVE('',#494,#492,#82,.T.);
#622=EDGE_CURVE('',#493,#494,#294,.T.);
#623=EDGE_CURVE('',#479,#493,#295,.T.);
#624=EDGE_CURVE('',#481,#494,#296,.T.);
#625=EDGE_CURVE('',#495,#496,#83,.T.);
#626=EDGE_CURVE('',#495,#497,#297,.T.);
#627=EDGE_CURVE('',#498,#497,#84,.T.);
#628=EDGE_CURVE('',#496,#498,#298,.T.);
#629=EDGE_CURVE('',#496,#499,#299,.T.);
#630=EDGE_CURVE('',#500,#498,#300,.T.);
#631=EDGE_CURVE('',#499,#500,#301,.T.);
#632=EDGE_CURVE('',#499,#501,#85,.T.);
#633=EDGE_CURVE('',#502,#500,#86,.T.);
#634=EDGE_CURVE('',#501,#502,#302,.T.);
#635=EDGE_CURVE('',#501,#503,#303,.T.);
#636=EDGE_CURVE('',#504,#502,#304,.T.);
#637=EDGE_CURVE('',#503,#504,#305,.T.);
#638=EDGE_CURVE('',#503,#505,#87,.T.);
#639=EDGE_CURVE('',#506,#504,#88,.T.);
#640=EDGE_CURVE('',#505,#506,#306,.T.);
#641=EDGE_CURVE('',#507,#505,#307,.T.);
#642=EDGE_CURVE('',#508,#506,#308,.T.);
#643=EDGE_CURVE('',#507,#508,#309,.T.);
#644=EDGE_CURVE('',#507,#509,#89,.T.);
#645=EDGE_CURVE('',#510,#508,#90,.T.);
#646=EDGE_CURVE('',#509,#510,#310,.T.);
#647=EDGE_CURVE('',#495,#509,#311,.T.);
#648=EDGE_CURVE('',#497,#510,#312,.T.);
#649=ORIENTED_EDGE('',*,*,#511,.F.);
#650=ORIENTED_EDGE('',*,*,#512,.F.);
#651=ORIENTED_EDGE('',*,*,#513,.T.);
#652=ORIENTED_EDGE('',*,*,#514,.F.);
#653=ORIENTED_EDGE('',*,*,#515,.T.);
#654=ORIENTED_EDGE('',*,*,#516,.T.);
#655=ORIENTED_EDGE('',*,*,#517,.T.);
#656=ORIENTED_EDGE('',*,*,#518,.T.);
#657=ORIENTED_EDGE('',*,*,#519,.T.);
#658=ORIENTED_EDGE('',*,*,#520,.T.);
#659=ORIENTED_EDGE('',*,*,#511,.T.);
#660=ORIENTED_EDGE('',*,*,#521,.T.);
#661=ORIENTED_EDGE('',*,*,#522,.T.);
#662=ORIENTED_EDGE('',*,*,#523,.T.);
#663=ORIENTED_EDGE('',*,*,#524,.T.);
#664=ORIENTED_EDGE('',*,*,#525,.T.);
#665=ORIENTED_EDGE('',*,*,#526,.T.);
#666=ORIENTED_EDGE('',*,*,#527,.T.);
#667=ORIENTED_EDGE('',*,*,#528,.T.);
#668=ORIENTED_EDGE('',*,*,#529,.T.);
#669=ORIENTED_EDGE('',*,*,#512,.T.);
#670=ORIENTED_EDGE('',*,*,#520,.F.);
#671=ORIENTED_EDGE('',*,*,#530,.F.);
#672=ORIENTED_EDGE('',*,*,#531,.T.);
#673=ORIENTED_EDGE('',*,*,#532,.T.);
#674=ORIENTED_EDGE('',*,*,#516,.F.);
#675=ORIENTED_EDGE('',*,*,#533,.F.);
#676=ORIENTED_EDGE('',*,*,#534,.F.);
#677=ORIENTED_EDGE('',*,*,#535,.F.);
#678=ORIENTED_EDGE('',*,*,#536,.F.);
#679=ORIENTED_EDGE('',*,*,#513,.F.);
#680=ORIENTED_EDGE('',*,*,#529,.F.);
#681=ORIENTED_EDGE('',*,*,#534,.T.);
#682=ORIENTED_EDGE('',*,*,#537,.T.);
#683=ORIENTED_EDGE('',*,*,#523,.F.);
#684=ORIENTED_EDGE('',*,*,#538,.F.);
#685=ORIENTED_EDGE('',*,*,#533,.T.);
#686=ORIENTED_EDGE('',*,*,#528,.F.);
#687=ORIENTED_EDGE('',*,*,#515,.F.);
#688=ORIENTED_EDGE('',*,*,#537,.F.);
#689=ORIENTED_EDGE('',*,*,#524,.F.);
#690=ORIENTED_EDGE('',*,*,#539,.T.);
#691=ORIENTED_EDGE('',*,*,#540,.T.);
#692=ORIENTED_EDGE('',*,*,#539,.F.);
#693=ORIENTED_EDGE('',*,*,#525,.F.);
#694=ORIENTED_EDGE('',*,*,#541,.T.);
#695=ORIENTED_EDGE('',*,*,#542,.T.);
#696=ORIENTED_EDGE('',*,*,#541,.F.);
#697=ORIENTED_EDGE('',*,*,#535,.T.);
#698=ORIENTED_EDGE('',*,*,#538,.T.);
#699=ORIENTED_EDGE('',*,*,#522,.F.);
#700=ORIENTED_EDGE('',*,*,#543,.F.);
#701=ORIENTED_EDGE('',*,*,#514,.T.);
#702=ORIENTED_EDGE('',*,*,#536,.T.);
#703=ORIENTED_EDGE('',*,*,#543,.T.);
#704=ORIENTED_EDGE('',*,*,#521,.F.);
#705=ORIENTED_EDGE('',*,*,#526,.F.);
#706=ORIENTED_EDGE('',*,*,#544,.T.);
#707=ORIENTED_EDGE('',*,*,#545,.T.);
#708=ORIENTED_EDGE('',*,*,#544,.F.);
#709=ORIENTED_EDGE('',*,*,#527,.F.);
#710=ORIENTED_EDGE('',*,*,#546,.T.);
#711=ORIENTED_EDGE('',*,*,#547,.T.);
#712=ORIENTED_EDGE('',*,*,#546,.F.);
#713=ORIENTED_EDGE('',*,*,#548,.T.);
#714=ORIENTED_EDGE('',*,*,#530,.T.);
#715=ORIENTED_EDGE('',*,*,#519,.F.);
#716=ORIENTED_EDGE('',*,*,#549,.F.);
#717=ORIENTED_EDGE('',*,*,#550,.T.);
#718=ORIENTED_EDGE('',*,*,#549,.T.);
#719=ORIENTED_EDGE('',*,*,#518,.F.);
#720=ORIENTED_EDGE('',*,*,#551,.F.);
#721=ORIENTED_EDGE('',*,*,#552,.T.);
#722=ORIENTED_EDGE('',*,*,#551,.T.);
#723=ORIENTED_EDGE('',*,*,#517,.F.);
#724=ORIENTED_EDGE('',*,*,#532,.F.);
#725=ORIENTED_EDGE('',*,*,#552,.F.);
#726=ORIENTED_EDGE('',*,*,#531,.F.);
#727=ORIENTED_EDGE('',*,*,#548,.F.);
#728=ORIENTED_EDGE('',*,*,#550,.F.);
#729=ORIENTED_EDGE('',*,*,#547,.F.);
#730=ORIENTED_EDGE('',*,*,#545,.F.);
#731=ORIENTED_EDGE('',*,*,#542,.F.);
#732=ORIENTED_EDGE('',*,*,#540,.F.);
#733=ORIENTED_EDGE('',*,*,#553,.F.);
#734=ORIENTED_EDGE('',*,*,#554,.F.);
#735=ORIENTED_EDGE('',*,*,#555,.F.);
#736=ORIENTED_EDGE('',*,*,#556,.T.);
#737=ORIENTED_EDGE('',*,*,#557,.F.);
#738=ORIENTED_EDGE('',*,*,#556,.F.);
#739=ORIENTED_EDGE('',*,*,#558,.F.);
#740=ORIENTED_EDGE('',*,*,#559,.T.);
#741=ORIENTED_EDGE('',*,*,#560,.F.);
#742=ORIENTED_EDGE('',*,*,#559,.F.);
#743=ORIENTED_EDGE('',*,*,#561,.F.);
#744=ORIENTED_EDGE('',*,*,#562,.T.);
#745=ORIENTED_EDGE('',*,*,#563,.F.);
#746=ORIENTED_EDGE('',*,*,#562,.F.);
#747=ORIENTED_EDGE('',*,*,#564,.F.);
#748=ORIENTED_EDGE('',*,*,#554,.T.);
#749=ORIENTED_EDGE('',*,*,#565,.T.);
#750=ORIENTED_EDGE('',*,*,#566,.T.);
#751=ORIENTED_EDGE('',*,*,#567,.F.);
#752=ORIENTED_EDGE('',*,*,#568,.F.);
#753=ORIENTED_EDGE('',*,*,#569,.T.);
#754=ORIENTED_EDGE('',*,*,#568,.T.);
#755=ORIENTED_EDGE('',*,*,#570,.F.);
#756=ORIENTED_EDGE('',*,*,#571,.F.);
#757=ORIENTED_EDGE('',*,*,#572,.T.);
#758=ORIENTED_EDGE('',*,*,#571,.T.);
#759=ORIENTED_EDGE('',*,*,#573,.F.);
#760=ORIENTED_EDGE('',*,*,#574,.F.);
#761=ORIENTED_EDGE('',*,*,#575,.T.);
#762=ORIENTED_EDGE('',*,*,#574,.T.);
#763=ORIENTED_EDGE('',*,*,#576,.F.);
#764=ORIENTED_EDGE('',*,*,#566,.F.);
#765=ORIENTED_EDGE('',*,*,#577,.F.);
#766=ORIENTED_EDGE('',*,*,#578,.T.);
#767=ORIENTED_EDGE('',*,*,#579,.F.);
#768=ORIENTED_EDGE('',*,*,#580,.F.);
#769=ORIENTED_EDGE('',*,*,#581,.F.);
#770=ORIENTED_EDGE('',*,*,#580,.T.);
#771=ORIENTED_EDGE('',*,*,#582,.F.);
#772=ORIENTED_EDGE('',*,*,#583,.F.);
#773=ORIENTED_EDGE('',*,*,#584,.F.);
#774=ORIENTED_EDGE('',*,*,#583,.T.);
#775=ORIENTED_EDGE('',*,*,#585,.F.);
#776=ORIENTED_EDGE('',*,*,#586,.F.);
#777=ORIENTED_EDGE('',*,*,#587,.F.);
#778=ORIENTED_EDGE('',*,*,#586,.T.);
#779=ORIENTED_EDGE('',*,*,#588,.F.);
#780=ORIENTED_EDGE('',*,*,#589,.F.);
#781=ORIENTED_EDGE('',*,*,#590,.F.);
#782=ORIENTED_EDGE('',*,*,#589,.T.);
#783=ORIENTED_EDGE('',*,*,#591,.F.);
#784=ORIENTED_EDGE('',*,*,#592,.F.);
#785=ORIENTED_EDGE('',*,*,#593,.T.);
#786=ORIENTED_EDGE('',*,*,#592,.T.);
#787=ORIENTED_EDGE('',*,*,#594,.F.);
#788=ORIENTED_EDGE('',*,*,#595,.F.);
#789=ORIENTED_EDGE('',*,*,#596,.F.);
#790=ORIENTED_EDGE('',*,*,#595,.T.);
#791=ORIENTED_EDGE('',*,*,#597,.F.);
#792=ORIENTED_EDGE('',*,*,#598,.F.);
#793=ORIENTED_EDGE('',*,*,#599,.T.);
#794=ORIENTED_EDGE('',*,*,#598,.T.);
#795=ORIENTED_EDGE('',*,*,#600,.F.);
#796=ORIENTED_EDGE('',*,*,#578,.F.);
#797=ORIENTED_EDGE('',*,*,#601,.F.);
#798=ORIENTED_EDGE('',*,*,#602,.T.);
#799=ORIENTED_EDGE('',*,*,#603,.F.);
#800=ORIENTED_EDGE('',*,*,#604,.F.);
#801=ORIENTED_EDGE('',*,*,#605,.F.);
#802=ORIENTED_EDGE('',*,*,#604,.T.);
#803=ORIENTED_EDGE('',*,*,#606,.F.);
#804=ORIENTED_EDGE('',*,*,#607,.F.);
#805=ORIENTED_EDGE('',*,*,#608,.F.);
#806=ORIENTED_EDGE('',*,*,#607,.T.);
#807=ORIENTED_EDGE('',*,*,#609,.F.);
#808=ORIENTED_EDGE('',*,*,#610,.F.);
#809=ORIENTED_EDGE('',*,*,#611,.F.);
#810=ORIENTED_EDGE('',*,*,#610,.T.);
#811=ORIENTED_EDGE('',*,*,#612,.F.);
#812=ORIENTED_EDGE('',*,*,#613,.F.);
#813=ORIENTED_EDGE('',*,*,#614,.F.);
#814=ORIENTED_EDGE('',*,*,#613,.T.);
#815=ORIENTED_EDGE('',*,*,#615,.F.);
#816=ORIENTED_EDGE('',*,*,#616,.F.);
#817=ORIENTED_EDGE('',*,*,#617,.T.);
#818=ORIENTED_EDGE('',*,*,#616,.T.);
#819=ORIENTED_EDGE('',*,*,#618,.F.);
#820=ORIENTED_EDGE('',*,*,#619,.F.);
#821=ORIENTED_EDGE('',*,*,#620,.F.);
#822=ORIENTED_EDGE('',*,*,#619,.T.);
#823=ORIENTED_EDGE('',*,*,#621,.F.);
#824=ORIENTED_EDGE('',*,*,#622,.F.);
#825=ORIENTED_EDGE('',*,*,#623,.T.);
#826=ORIENTED_EDGE('',*,*,#622,.T.);
#827=ORIENTED_EDGE('',*,*,#624,.F.);
#828=ORIENTED_EDGE('',*,*,#602,.F.);
#829=ORIENTED_EDGE('',*,*,#625,.F.);
#830=ORIENTED_EDGE('',*,*,#626,.T.);
#831=ORIENTED_EDGE('',*,*,#627,.F.);
#832=ORIENTED_EDGE('',*,*,#628,.F.);
#833=ORIENTED_EDGE('',*,*,#629,.F.);
#834=ORIENTED_EDGE('',*,*,#628,.T.);
#835=ORIENTED_EDGE('',*,*,#630,.F.);
#836=ORIENTED_EDGE('',*,*,#631,.F.);
#837=ORIENTED_EDGE('',*,*,#632,.F.);
#838=ORIENTED_EDGE('',*,*,#631,.T.);
#839=ORIENTED_EDGE('',*,*,#633,.F.);
#840=ORIENTED_EDGE('',*,*,#634,.F.);
#841=ORIENTED_EDGE('',*,*,#635,.F.);
#842=ORIENTED_EDGE('',*,*,#634,.T.);
#843=ORIENTED_EDGE('',*,*,#636,.F.);
#844=ORIENTED_EDGE('',*,*,#637,.F.);
#845=ORIENTED_EDGE('',*,*,#638,.F.);
#846=ORIENTED_EDGE('',*,*,#637,.T.);
#847=ORIENTED_EDGE('',*,*,#639,.F.);
#848=ORIENTED_EDGE('',*,*,#640,.F.);
#849=ORIENTED_EDGE('',*,*,#641,.T.);
#850=ORIENTED_EDGE('',*,*,#640,.T.);
#851=ORIENTED_EDGE('',*,*,#642,.F.);
#852=ORIENTED_EDGE('',*,*,#643,.F.);
#853=ORIENTED_EDGE('',*,*,#644,.F.);
#854=ORIENTED_EDGE('',*,*,#643,.T.);
#855=ORIENTED_EDGE('',*,*,#645,.F.);
#856=ORIENTED_EDGE('',*,*,#646,.F.);
#857=ORIENTED_EDGE('',*,*,#647,.T.);
#858=ORIENTED_EDGE('',*,*,#646,.T.);
#859=ORIENTED_EDGE('',*,*,#648,.F.);
#860=ORIENTED_EDGE('',*,*,#626,.F.);
#861=ORIENTED_EDGE('',*,*,#575,.F.);
#862=ORIENTED_EDGE('',*,*,#565,.F.);
#863=ORIENTED_EDGE('',*,*,#569,.F.);
#864=ORIENTED_EDGE('',*,*,#572,.F.);
#865=ORIENTED_EDGE('',*,*,#561,.T.);
#866=ORIENTED_EDGE('',*,*,#558,.T.);
#867=ORIENTED_EDGE('',*,*,#555,.T.);
#868=ORIENTED_EDGE('',*,*,#564,.T.);
#869=ORIENTED_EDGE('',*,*,#648,.T.);
#870=ORIENTED_EDGE('',*,*,#645,.T.);
#871=ORIENTED_EDGE('',*,*,#642,.T.);
#872=ORIENTED_EDGE('',*,*,#639,.T.);
#873=ORIENTED_EDGE('',*,*,#636,.T.);
#874=ORIENTED_EDGE('',*,*,#633,.T.);
#875=ORIENTED_EDGE('',*,*,#630,.T.);
#876=ORIENTED_EDGE('',*,*,#627,.T.);
#877=ORIENTED_EDGE('',*,*,#624,.T.);
#878=ORIENTED_EDGE('',*,*,#621,.T.);
#879=ORIENTED_EDGE('',*,*,#618,.T.);
#880=ORIENTED_EDGE('',*,*,#615,.T.);
#881=ORIENTED_EDGE('',*,*,#612,.T.);
#882=ORIENTED_EDGE('',*,*,#609,.T.);
#883=ORIENTED_EDGE('',*,*,#606,.T.);
#884=ORIENTED_EDGE('',*,*,#603,.T.);
#885=ORIENTED_EDGE('',*,*,#600,.T.);
#886=ORIENTED_EDGE('',*,*,#597,.T.);
#887=ORIENTED_EDGE('',*,*,#594,.T.);
#888=ORIENTED_EDGE('',*,*,#591,.T.);
#889=ORIENTED_EDGE('',*,*,#588,.T.);
#890=ORIENTED_EDGE('',*,*,#585,.T.);
#891=ORIENTED_EDGE('',*,*,#582,.T.);
#892=ORIENTED_EDGE('',*,*,#579,.T.);
#893=ORIENTED_EDGE('',*,*,#576,.T.);
#894=ORIENTED_EDGE('',*,*,#573,.T.);
#895=ORIENTED_EDGE('',*,*,#570,.T.);
#896=ORIENTED_EDGE('',*,*,#567,.T.);
#897=ORIENTED_EDGE('',*,*,#560,.T.);
#898=ORIENTED_EDGE('',*,*,#563,.T.);
#899=ORIENTED_EDGE('',*,*,#553,.T.);
#900=ORIENTED_EDGE('',*,*,#557,.T.);
#901=ORIENTED_EDGE('',*,*,#647,.F.);
#902=ORIENTED_EDGE('',*,*,#625,.T.);
#903=ORIENTED_EDGE('',*,*,#629,.T.);
#904=ORIENTED_EDGE('',*,*,#632,.T.);
#905=ORIENTED_EDGE('',*,*,#635,.T.);
#906=ORIENTED_EDGE('',*,*,#638,.T.);
#907=ORIENTED_EDGE('',*,*,#641,.F.);
#908=ORIENTED_EDGE('',*,*,#644,.T.);
#909=ORIENTED_EDGE('',*,*,#623,.F.);
#910=ORIENTED_EDGE('',*,*,#601,.T.);
#911=ORIENTED_EDGE('',*,*,#605,.T.);
#912=ORIENTED_EDGE('',*,*,#608,.T.);
#913=ORIENTED_EDGE('',*,*,#611,.T.);
#914=ORIENTED_EDGE('',*,*,#614,.T.);
#915=ORIENTED_EDGE('',*,*,#617,.F.);
#916=ORIENTED_EDGE('',*,*,#620,.T.);
#917=ORIENTED_EDGE('',*,*,#599,.F.);
#918=ORIENTED_EDGE('',*,*,#577,.T.);
#919=ORIENTED_EDGE('',*,*,#581,.T.);
#920=ORIENTED_EDGE('',*,*,#584,.T.);
#921=ORIENTED_EDGE('',*,*,#587,.T.);
#922=ORIENTED_EDGE('',*,*,#590,.T.);
#923=ORIENTED_EDGE('',*,*,#593,.F.);
#924=ORIENTED_EDGE('',*,*,#596,.T.);
#925=PLANE('',#1036);
#926=PLANE('',#1037);
#927=PLANE('',#1042);
#928=PLANE('',#1043);
#929=PLANE('',#1044);
#930=PLANE('',#1045);
#931=PLANE('',#1050);
#932=PLANE('',#1051);
#933=PLANE('',#1056);
#934=PLANE('',#1057);
#935=PLANE('',#1058);
#936=PLANE('',#1059);
#937=PLANE('',#1061);
#938=PLANE('',#1062);
#939=PLANE('',#1063);
#940=PLANE('',#1064);
#941=PLANE('',#1065);
#942=PLANE('',#1066);
#943=PLANE('',#1067);
#944=PLANE('',#1068);
#945=PLANE('',#1072);
#946=PLANE('',#1076);
#947=PLANE('',#1080);
#948=PLANE('',#1084);
#949=PLANE('',#1088);
#950=PLANE('',#1092);
#951=PLANE('',#1096);
#952=PLANE('',#1100);
#953=PLANE('',#1104);
#954=PLANE('',#1108);
#955=PLANE('',#1112);
#956=PLANE('',#1116);
#957=PLANE('',#1117);
#958=PLANE('',#1118);
#959=ADVANCED_FACE('',(#91),#925,.F.);
#960=ADVANCED_FACE('',(#92,#43,#44,#45,#46),#926,.T.);
#961=ADVANCED_FACE('',(#93),#927,.T.);
#962=ADVANCED_FACE('',(#94),#928,.T.);
#963=ADVANCED_FACE('',(#95),#929,.T.);
#964=ADVANCED_FACE('',(#96),#930,.T.);
#965=ADVANCED_FACE('',(#97),#27,.F.);
#966=ADVANCED_FACE('',(#98),#28,.F.);
#967=ADVANCED_FACE('',(#99),#931,.T.);
#968=ADVANCED_FACE('',(#100),#932,.T.);
#969=ADVANCED_FACE('',(#101),#29,.F.);
#970=ADVANCED_FACE('',(#102),#30,.F.);
#971=ADVANCED_FACE('',(#103),#933,.T.);
#972=ADVANCED_FACE('',(#104),#934,.T.);
#973=ADVANCED_FACE('',(#105),#935,.T.);
#974=ADVANCED_FACE('',(#106,#47,#48,#49,#50),#936,.F.);
#975=ADVANCED_FACE('',(#107),#937,.F.);
#976=ADVANCED_FACE('',(#108),#938,.F.);
#977=ADVANCED_FACE('',(#109),#939,.F.);
#978=ADVANCED_FACE('',(#110),#940,.F.);
#979=ADVANCED_FACE('',(#111),#941,.T.);
#980=ADVANCED_FACE('',(#112),#942,.T.);
#981=ADVANCED_FACE('',(#113),#943,.T.);
#982=ADVANCED_FACE('',(#114),#944,.T.);
#983=ADVANCED_FACE('',(#115),#31,.F.);
#984=ADVANCED_FACE('',(#116),#945,.T.);
#985=ADVANCED_FACE('',(#117),#32,.F.);
#986=ADVANCED_FACE('',(#118),#946,.T.);
#987=ADVANCED_FACE('',(#119),#33,.F.);
#988=ADVANCED_FACE('',(#120),#947,.T.);
#989=ADVANCED_FACE('',(#121),#34,.F.);
#990=ADVANCED_FACE('',(#122),#948,.T.);
#991=ADVANCED_FACE('',(#123),#35,.F.);
#992=ADVANCED_FACE('',(#124),#949,.T.);
#993=ADVANCED_FACE('',(#125),#36,.F.);
#994=ADVANCED_FACE('',(#126),#950,.T.);
#995=ADVANCED_FACE('',(#127),#37,.F.);
#996=ADVANCED_FACE('',(#128),#951,.T.);
#997=ADVANCED_FACE('',(#129),#38,.F.);
#998=ADVANCED_FACE('',(#130),#952,.T.);
#999=ADVANCED_FACE('',(#131),#39,.F.);
#1000=ADVANCED_FACE('',(#132),#953,.T.);
#1001=ADVANCED_FACE('',(#133),#40,.F.);
#1002=ADVANCED_FACE('',(#134),#954,.T.);
#1003=ADVANCED_FACE('',(#135),#41,.F.);
#1004=ADVANCED_FACE('',(#136),#955,.T.);
#1005=ADVANCED_FACE('',(#137),#42,.F.);
#1006=ADVANCED_FACE('',(#138),#956,.T.);
#1007=ADVANCED_FACE('',(#139,#51,#52,#53,#54),#957,.T.);
#1008=ADVANCED_FACE('',(#140,#55,#56,#57,#58),#958,.F.);
#1009=CLOSED_SHELL('',(#959,#960,#961,#962,#963,#964,#965,#966,#967,#968,
#969,#970,#971,#972,#973,#974));
#1010=CLOSED_SHELL('',(#975,#976,#977,#978,#979,#980,#981,#982,#983,#984,
#985,#986,#987,#988,#989,#990,#991,#992,#993,#994,#995,#996,#997,#998,#999,
#1000,#1001,#1002,#1003,#1004,#1005,#1006,#1007,#1008));
#1011=DERIVED_UNIT_ELEMENT(#1015,1.);
#1012=DERIVED_UNIT_ELEMENT(#1695,-3.);
#1013=DERIVED_UNIT_ELEMENT(#1015,1.);
#1014=DERIVED_UNIT_ELEMENT(#1695,-3.);
#1015=(
MASS_UNIT()
NAMED_UNIT(*)
SI_UNIT(.KILO.,.GRAM.)
);
#1016=DERIVED_UNIT((#1011,#1012));
#1017=DERIVED_UNIT((#1013,#1014));
#1018=MEASURE_REPRESENTATION_ITEM('density measure',
POSITIVE_RATIO_MEASURE(7850.),#1016);
#1019=MEASURE_REPRESENTATION_ITEM('density measure',
POSITIVE_RATIO_MEASURE(7850.),#1017);
#1020=PROPERTY_DEFINITION_REPRESENTATION(#1030,#1024);
#1021=PROPERTY_DEFINITION_REPRESENTATION(#1031,#1025);
#1022=PROPERTY_DEFINITION_REPRESENTATION(#1032,#1026);
#1023=PROPERTY_DEFINITION_REPRESENTATION(#1033,#1027);
#1024=REPRESENTATION('material name',(#1028),#1691);
#1025=REPRESENTATION('density',(#1018),#1691);
#1026=REPRESENTATION('material name',(#1029),#1692);
#1027=REPRESENTATION('density',(#1019),#1692);
#1028=DESCRIPTIVE_REPRESENTATION_ITEM('Steel','Steel');
#1029=DESCRIPTIVE_REPRESENTATION_ITEM('Steel','Steel');
#1030=PROPERTY_DEFINITION('material property','material name',#1711);
#1031=PROPERTY_DEFINITION('material property','density of part',#1711);
#1032=PROPERTY_DEFINITION('material property','material name',#1712);
#1033=PROPERTY_DEFINITION('material property','density of part',#1712);
#1034=AXIS2_PLACEMENT_3D('',#1401,#1121,#1122);
#1035=AXIS2_PLACEMENT_3D('',#1402,#1123,#1124);
#1036=AXIS2_PLACEMENT_3D('',#1403,#1125,#1126);
#1037=AXIS2_PLACEMENT_3D('',#1412,#1131,#1132);
#1038=AXIS2_PLACEMENT_3D('',#1431,#1142,#1143);
#1039=AXIS2_PLACEMENT_3D('',#1433,#1144,#1145);
#1040=AXIS2_PLACEMENT_3D('',#1435,#1146,#1147);
#1041=AXIS2_PLACEMENT_3D('',#1437,#1148,#1149);
#1042=AXIS2_PLACEMENT_3D('',#1438,#1150,#1151);
#1043=AXIS2_PLACEMENT_3D('',#1447,#1157,#1158);
#1044=AXIS2_PLACEMENT_3D('',#1455,#1163,#1164);
#1045=AXIS2_PLACEMENT_3D('',#1458,#1167,#1168);
#1046=AXIS2_PLACEMENT_3D('',#1459,#1169,#1170);
#1047=AXIS2_PLACEMENT_3D('',#1462,#1172,#1173);
#1048=AXIS2_PLACEMENT_3D('',#1463,#1174,#1175);
#1049=AXIS2_PLACEMENT_3D('',#1466,#1177,#1178);
#1050=AXIS2_PLACEMENT_3D('',#1467,#1179,#1180);
#1051=AXIS2_PLACEMENT_3D('',#1469,#1182,#1183);
#1052=AXIS2_PLACEMENT_3D('',#1470,#1184,#1185);
#1053=AXIS2_PLACEMENT_3D('',#1473,#1187,#1188);
#1054=AXIS2_PLACEMENT_3D('',#1474,#1189,#1190);
#1055=AXIS2_PLACEMENT_3D('',#1477,#1192,#1193);
#1056=AXIS2_PLACEMENT_3D('',#1478,#1194,#1195);
#1057=AXIS2_PLACEMENT_3D('',#1482,#1198,#1199);
#1058=AXIS2_PLACEMENT_3D('',#1486,#1202,#1203);
#1059=AXIS2_PLACEMENT_3D('',#1488,#1205,#1206);
#1060=AXIS2_PLACEMENT_3D('',#1489,#1207,#1208);
#1061=AXIS2_PLACEMENT_3D('',#1490,#1209,#1210);
#1062=AXIS2_PLACEMENT_3D('',#1499,#1215,#1216);
#1063=AXIS2_PLACEMENT_3D('',#1505,#1220,#1221);
#1064=AXIS2_PLACEMENT_3D('',#1511,#1225,#1226);
#1065=AXIS2_PLACEMENT_3D('',#1514,#1229,#1230);
#1066=AXIS2_PLACEMENT_3D('',#1523,#1235,#1236);
#1067=AXIS2_PLACEMENT_3D('',#1529,#1240,#1241);
#1068=AXIS2_PLACEMENT_3D('',#1535,#1245,#1246);
#1069=AXIS2_PLACEMENT_3D('',#1538,#1249,#1250);
#1070=AXIS2_PLACEMENT_3D('',#1541,#1251,#1252);
#1071=AXIS2_PLACEMENT_3D('',#1545,#1254,#1255);
#1072=AXIS2_PLACEMENT_3D('',#1547,#1257,#1258);
#1073=AXIS2_PLACEMENT_3D('',#1553,#1262,#1263);
#1074=AXIS2_PLACEMENT_3D('',#1555,#1264,#1265);
#1075=AXIS2_PLACEMENT_3D('',#1557,#1266,#1267);
#1076=AXIS2_PLACEMENT_3D('',#1559,#1269,#1270);
#1077=AXIS2_PLACEMENT_3D('',#1565,#1274,#1275);
#1078=AXIS2_PLACEMENT_3D('',#1567,#1276,#1277);
#1079=AXIS2_PLACEMENT_3D('',#1569,#1278,#1279);
#1080=AXIS2_PLACEMENT_3D('',#1571,#1281,#1282);
#1081=AXIS2_PLACEMENT_3D('',#1577,#1286,#1287);
#1082=AXIS2_PLACEMENT_3D('',#1579,#1288,#1289);
#1083=AXIS2_PLACEMENT_3D('',#1581,#1290,#1291);
#1084=AXIS2_PLACEMENT_3D('',#1583,#1293,#1294);
#1085=AXIS2_PLACEMENT_3D('',#1586,#1297,#1298);
#1086=AXIS2_PLACEMENT_3D('',#1589,#1299,#1300);
#1087=AXIS2_PLACEMENT_3D('',#1593,#1302,#1303);
#1088=AXIS2_PLACEMENT_3D('',#1595,#1305,#1306);
#1089=AXIS2_PLACEMENT_3D('',#1601,#1310,#1311);
#1090=AXIS2_PLACEMENT_3D('',#1603,#1312,#1313);
#1091=AXIS2_PLACEMENT_3D('',#1605,#1314,#1315);
#1092=AXIS2_PLACEMENT_3D('',#1607,#1317,#1318);
#1093=AXIS2_PLACEMENT_3D('',#1613,#1322,#1323);
#1094=AXIS2_PLACEMENT_3D('',#1615,#1324,#1325);
#1095=AXIS2_PLACEMENT_3D('',#1617,#1326,#1327);
#1096=AXIS2_PLACEMENT_3D('',#1619,#1329,#1330);
#1097=AXIS2_PLACEMENT_3D('',#1625,#1334,#1335);
#1098=AXIS2_PLACEMENT_3D('',#1627,#1336,#1337);
#1099=AXIS2_PLACEMENT_3D('',#1629,#1338,#1339);
#1100=AXIS2_PLACEMENT_3D('',#1631,#1341,#1342);
#1101=AXIS2_PLACEMENT_3D('',#1634,#1345,#1346);
#1102=AXIS2_PLACEMENT_3D('',#1637,#1347,#1348);
#1103=AXIS2_PLACEMENT_3D('',#1641,#1350,#1351);
#1104=AXIS2_PLACEMENT_3D('',#1643,#1353,#1354);
#1105=AXIS2_PLACEMENT_3D('',#1649,#1358,#1359);
#1106=AXIS2_PLACEMENT_3D('',#1651,#1360,#1361);
#1107=AXIS2_PLACEMENT_3D('',#1653,#1362,#1363);
#1108=AXIS2_PLACEMENT_3D('',#1655,#1365,#1366);
#1109=AXIS2_PLACEMENT_3D('',#1661,#1370,#1371);
#1110=AXIS2_PLACEMENT_3D('',#1663,#1372,#1373);
#1111=AXIS2_PLACEMENT_3D('',#1665,#1374,#1375);
#1112=AXIS2_PLACEMENT_3D('',#1667,#1377,#1378);
#1113=AXIS2_PLACEMENT_3D('',#1673,#1382,#1383);
#1114=AXIS2_PLACEMENT_3D('',#1675,#1384,#1385);
#1115=AXIS2_PLACEMENT_3D('',#1677,#1386,#1387);
#1116=AXIS2_PLACEMENT_3D('',#1679,#1389,#1390);
#1117=AXIS2_PLACEMENT_3D('',#1682,#1393,#1394);
#1118=AXIS2_PLACEMENT_3D('',#1683,#1395,#1396);
#1119=AXIS2_PLACEMENT_3D('',#1684,#1397,#1398);
#1120=AXIS2_PLACEMENT_3D('',#1685,#1399,#1400);
#1121=DIRECTION('axis',(0.,0.,1.));
#1122=DIRECTION('refdir',(1.,0.,0.));
#1123=DIRECTION('axis',(0.,0.,1.));
#1124=DIRECTION('refdir',(1.,0.,0.));
#1125=DIRECTION('center_axis',(1.,0.,0.));
#1126=DIRECTION('ref_axis',(0.,-1.,0.));
#1127=DIRECTION('',(0.,-1.,0.));
#1128=DIRECTION('',(0.,0.,1.));
#1129=DIRECTION('',(0.,-1.,0.));
#1130=DIRECTION('',(0.,0.,-1.));
#1131=DIRECTION('center_axis',(0.,0.,1.));
#1132=DIRECTION('ref_axis',(1.,0.,0.));
#1133=DIRECTION('',(0.,1.,0.));
#1134=DIRECTION('',(-1.,0.,0.));
#1135=DIRECTION('',(0.,-1.,0.));
#1136=DIRECTION('',(1.,0.,0.));
#1137=DIRECTION('',(0.,1.,0.));
#1138=DIRECTION('',(-1.,0.,0.));
#1139=DIRECTION('',(1.,0.,0.));
#1140=DIRECTION('',(0.,-1.,0.));
#1141=DIRECTION('',(-1.,0.,0.));
#1142=DIRECTION('center_axis',(0.,0.,-1.));
#1143=DIRECTION('ref_axis',(1.,0.,0.));
#1144=DIRECTION('center_axis',(0.,0.,-1.));
#1145=DIRECTION('ref_axis',(1.,0.,0.));
#1146=DIRECTION('center_axis',(0.,0.,-1.));
#1147=DIRECTION('ref_axis',(1.,0.,0.));
#1148=DIRECTION('center_axis',(0.,0.,-1.));
#1149=DIRECTION('ref_axis',(1.,0.,0.));
#1150=DIRECTION('center_axis',(0.,1.,0.));
#1151=DIRECTION('ref_axis',(-1.,0.,0.));
#1152=DIRECTION('',(0.,0.,-1.));
#1153=DIRECTION('',(1.,0.,0.));
#1154=DIRECTION('',(0.,0.,1.));
#1155=DIRECTION('',(-1.,0.,0.));
#1156=DIRECTION('',(0.,0.,1.));
#1157=DIRECTION('center_axis',(0.,0.,1.));
#1158=DIRECTION('ref_axis',(1.,0.,0.));
#1159=DIRECTION('',(0.,1.,0.));
#1160=DIRECTION('',(-1.,0.,0.));
#1161=DIRECTION('',(0.,-1.,0.));
#1162=DIRECTION('',(1.,0.,0.));
#1163=DIRECTION('center_axis',(0.,1.,0.));
#1164=DIRECTION('ref_axis',(-1.,0.,0.));
#1165=DIRECTION('',(0.,0.,1.));
#1166=DIRECTION('',(0.,0.,1.));
#1167=DIRECTION('center_axis',(1.,0.,0.));
#1168=DIRECTION('ref_axis',(0.,1.,0.));
#1169=DIRECTION('center_axis',(0.,0.,1.));
#1170=DIRECTION('ref_axis',(1.,0.,0.));
#1171=DIRECTION('',(0.,0.,-1.));
#1172=DIRECTION('center_axis',(0.,0.,-1.));
#1173=DIRECTION('ref_axis',(1.,0.,0.));
#1174=DIRECTION('center_axis',(0.,0.,1.));
#1175=DIRECTION('ref_axis',(1.,0.,0.));
#1176=DIRECTION('',(0.,0.,-1.));
#1177=DIRECTION('center_axis',(0.,0.,-1.));
#1178=DIRECTION('ref_axis',(1.,0.,0.));
#1179=DIRECTION('center_axis',(-1.,0.,0.));
#1180=DIRECTION('ref_axis',(0.,-1.,0.));
#1181=DIRECTION('',(0.,0.,1.));
#1182=DIRECTION('center_axis',(0.,-1.,0.));
#1183=DIRECTION('ref_axis',(1.,0.,0.));
#1184=DIRECTION('center_axis',(0.,0.,1.));
#1185=DIRECTION('ref_axis',(1.,0.,0.));
#1186=DIRECTION('',(0.,0.,-1.));
#1187=DIRECTION('center_axis',(0.,0.,-1.));
#1188=DIRECTION('ref_axis',(1.,0.,0.));
#1189=DIRECTION('center_axis',(0.,0.,1.));
#1190=DIRECTION('ref_axis',(1.,0.,0.));
#1191=DIRECTION('',(0.,0.,-1.));
#1192=DIRECTION('center_axis',(0.,0.,-1.));
#1193=DIRECTION('ref_axis',(1.,0.,0.));
#1194=DIRECTION('center_axis',(1.,0.,0.));
#1195=DIRECTION('ref_axis',(0.,1.,0.));
#1196=DIRECTION('',(0.,1.,0.));
#1197=DIRECTION('',(0.,0.,1.));
#1198=DIRECTION('center_axis',(0.,-1.,0.));
#1199=DIRECTION('ref_axis',(1.,0.,0.));
#1200=DIRECTION('',(1.,0.,0.));
#1201=DIRECTION('',(0.,0.,1.));
#1202=DIRECTION('center_axis',(-1.,0.,0.));
#1203=DIRECTION('ref_axis',(0.,-1.,0.));
#1204=DIRECTION('',(0.,-1.,0.));
#1205=DIRECTION('center_axis',(0.,0.,1.));
#1206=DIRECTION('ref_axis',(1.,0.,0.));
#1207=DIRECTION('axis',(0.,0.,1.));
#1208=DIRECTION('refdir',(1.,0.,0.));
#1209=DIRECTION('center_axis',(0.,-1.,0.));
#1210=DIRECTION('ref_axis',(-1.,0.,0.));
#1211=DIRECTION('',(1.,0.,0.));
#1212=DIRECTION('',(0.,0.,-1.));
#1213=DIRECTION('',(-1.,0.,0.));
#1214=DIRECTION('',(0.,0.,-1.));
#1215=DIRECTION('center_axis',(1.,0.,0.));
#1216=DIRECTION('ref_axis',(0.,-1.,0.));
#1217=DIRECTION('',(0.,1.,0.));
#1218=DIRECTION('',(0.,-1.,0.));
#1219=DIRECTION('',(0.,0.,-1.));
#1220=DIRECTION('center_axis',(0.,1.,0.));
#1221=DIRECTION('ref_axis',(1.,0.,0.));
#1222=DIRECTION('',(-1.,0.,0.));
#1223=DIRECTION('',(1.,0.,0.));
#1224=DIRECTION('',(0.,0.,-1.));
#1225=DIRECTION('center_axis',(-1.,0.,0.));
#1226=DIRECTION('ref_axis',(0.,1.,0.));
#1227=DIRECTION('',(0.,-1.,0.));
#1228=DIRECTION('',(0.,1.,0.));
#1229=DIRECTION('center_axis',(-1.,0.,0.));
#1230=DIRECTION('ref_axis',(0.,1.,0.));
#1231=DIRECTION('',(0.,1.,0.));
#1232=DIRECTION('',(0.,0.,-1.));
#1233=DIRECTION('',(0.,1.,0.));
#1234=DIRECTION('',(0.,0.,-1.));
#1235=DIRECTION('center_axis',(0.,-1.,0.));
#1236=DIRECTION('ref_axis',(-1.,0.,0.));
#1237=DIRECTION('',(-1.,0.,0.));
#1238=DIRECTION('',(-1.,0.,0.));
#1239=DIRECTION('',(0.,0.,-1.));
#1240=DIRECTION('center_axis',(1.,0.,0.));
#1241=DIRECTION('ref_axis',(0.,-1.,0.));
#1242=DIRECTION('',(0.,-1.,0.));
#1243=DIRECTION('',(0.,-1.,0.));
#1244=DIRECTION('',(0.,0.,-1.));
#1245=DIRECTION('center_axis',(0.,1.,0.));
#1246=DIRECTION('ref_axis',(1.,0.,0.));
#1247=DIRECTION('',(1.,0.,0.));
#1248=DIRECTION('',(1.,0.,0.));
#1249=DIRECTION('center_axis',(0.,0.,1.));
#1250=DIRECTION('ref_axis',(0.,1.,0.));
#1251=DIRECTION('center_axis',(0.,0.,1.));
#1252=DIRECTION('ref_axis',(0.,1.,0.));
#1253=DIRECTION('',(0.,0.,1.));
#1254=DIRECTION('center_axis',(0.,0.,-1.));
#1255=DIRECTION('ref_axis',(0.,1.,0.));
#1256=DIRECTION('',(0.,0.,1.));
#1257=DIRECTION('center_axis',(1.,0.,0.));
#1258=DIRECTION('ref_axis',(0.,1.,0.));
#1259=DIRECTION('',(0.,-1.,0.));
#1260=DIRECTION('',(0.,1.,0.));
#1261=DIRECTION('',(0.,0.,1.));
#1262=DIRECTION('center_axis',(0.,0.,1.));
#1263=DIRECTION('ref_axis',(-1.,0.,0.));
#1264=DIRECTION('center_axis',(0.,0.,1.));
#1265=DIRECTION('ref_axis',(-1.,0.,0.));
#1266=DIRECTION('center_axis',(0.,0.,-1.));
#1267=DIRECTION('ref_axis',(-1.,0.,0.));
#1268=DIRECTION('',(0.,0.,1.));
#1269=DIRECTION('center_axis',(0.,1.,0.));
#1270=DIRECTION('ref_axis',(-1.,0.,0.));
#1271=DIRECTION('',(1.,0.,0.));
#1272=DIRECTION('',(-1.,0.,0.));
#1273=DIRECTION('',(0.,0.,1.));
#1274=DIRECTION('center_axis',(0.,0.,1.));
#1275=DIRECTION('ref_axis',(0.,-1.,0.));
#1276=DIRECTION('center_axis',(0.,0.,1.));
#1277=DIRECTION('ref_axis',(0.,-1.,0.));
#1278=DIRECTION('center_axis',(0.,0.,-1.));
#1279=DIRECTION('ref_axis',(0.,-1.,0.));
#1280=DIRECTION('',(0.,0.,1.));
#1281=DIRECTION('center_axis',(-1.,0.,0.));
#1282=DIRECTION('ref_axis',(0.,-1.,0.));
#1283=DIRECTION('',(0.,-1.,0.));
#1284=DIRECTION('',(0.,-1.,0.));
#1285=DIRECTION('',(0.,0.,1.));
#1286=DIRECTION('center_axis',(0.,0.,1.));
#1287=DIRECTION('ref_axis',(1.,0.,0.));
#1288=DIRECTION('center_axis',(0.,0.,1.));
#1289=DIRECTION('ref_axis',(1.,0.,0.));
#1290=DIRECTION('center_axis',(0.,0.,-1.));
#1291=DIRECTION('ref_axis',(1.,0.,0.));
#1292=DIRECTION('',(0.,0.,1.));
#1293=DIRECTION('center_axis',(0.,-1.,0.));
#1294=DIRECTION('ref_axis',(1.,0.,0.));
#1295=DIRECTION('',(1.,0.,0.));
#1296=DIRECTION('',(1.,0.,0.));
#1297=DIRECTION('center_axis',(0.,0.,1.));
#1298=DIRECTION('ref_axis',(0.,1.,0.));
#1299=DIRECTION('center_axis',(0.,0.,1.));
#1300=DIRECTION('ref_axis',(0.,1.,0.));
#1301=DIRECTION('',(0.,0.,1.));
#1302=DIRECTION('center_axis',(0.,0.,-1.));
#1303=DIRECTION('ref_axis',(0.,1.,0.));
#1304=DIRECTION('',(0.,0.,1.));
#1305=DIRECTION('center_axis',(1.,0.,0.));
#1306=DIRECTION('ref_axis',(0.,1.,0.));
#1307=DIRECTION('',(0.,-1.,0.));
#1308=DIRECTION('',(0.,1.,0.));
#1309=DIRECTION('',(0.,0.,1.));
#1310=DIRECTION('center_axis',(0.,0.,1.));
#1311=DIRECTION('ref_axis',(-1.,0.,0.));
#1312=DIRECTION('center_axis',(0.,0.,1.));
#1313=DIRECTION('ref_axis',(-1.,0.,0.));
#1314=DIRECTION('center_axis',(0.,0.,-1.));
#1315=DIRECTION('ref_axis',(-1.,0.,0.));
#1316=DIRECTION('',(0.,0.,1.));
#1317=DIRECTION('center_axis',(0.,1.,0.));
#1318=DIRECTION('ref_axis',(-1.,0.,0.));
#1319=DIRECTION('',(1.,0.,0.));
#1320=DIRECTION('',(-1.,0.,0.));
#1321=DIRECTION('',(0.,0.,1.));
#1322=DIRECTION('center_axis',(0.,0.,1.));
#1323=DIRECTION('ref_axis',(0.,-1.,0.));
#1324=DIRECTION('center_axis',(0.,0.,1.));
#1325=DIRECTION('ref_axis',(0.,-1.,0.));
#1326=DIRECTION('center_axis',(0.,0.,-1.));
#1327=DIRECTION('ref_axis',(0.,-1.,0.));
#1328=DIRECTION('',(0.,0.,1.));
#1329=DIRECTION('center_axis',(-1.,0.,0.));
#1330=DIRECTION('ref_axis',(0.,-1.,0.));
#1331=DIRECTION('',(0.,-1.,0.));
#1332=DIRECTION('',(0.,-1.,0.));
#1333=DIRECTION('',(0.,0.,1.));
#1334=DIRECTION('center_axis',(0.,0.,1.));
#1335=DIRECTION('ref_axis',(1.,0.,0.));
#1336=DIRECTION('center_axis',(0.,0.,1.));
#1337=DIRECTION('ref_axis',(1.,0.,0.));
#1338=DIRECTION('center_axis',(0.,0.,-1.));
#1339=DIRECTION('ref_axis',(1.,0.,0.));
#1340=DIRECTION('',(0.,0.,1.));
#1341=DIRECTION('center_axis',(0.,-1.,0.));
#1342=DIRECTION('ref_axis',(1.,0.,0.));
#1343=DIRECTION('',(1.,0.,0.));
#1344=DIRECTION('',(1.,0.,0.));
#1345=DIRECTION('center_axis',(0.,0.,1.));
#1346=DIRECTION('ref_axis',(0.,1.,0.));
#1347=DIRECTION('center_axis',(0.,0.,1.));
#1348=DIRECTION('ref_axis',(0.,1.,0.));
#1349=DIRECTION('',(0.,0.,1.));
#1350=DIRECTION('center_axis',(0.,0.,-1.));
#1351=DIRECTION('ref_axis',(0.,1.,0.));
#1352=DIRECTION('',(0.,0.,1.));
#1353=DIRECTION('center_axis',(1.,0.,0.));
#1354=DIRECTION('ref_axis',(0.,1.,0.));
#1355=DIRECTION('',(0.,-1.,0.));
#1356=DIRECTION('',(0.,1.,0.));
#1357=DIRECTION('',(0.,0.,1.));
#1358=DIRECTION('center_axis',(0.,0.,1.));
#1359=DIRECTION('ref_axis',(-1.,0.,0.));
#1360=DIRECTION('center_axis',(0.,0.,1.));
#1361=DIRECTION('ref_axis',(-1.,0.,0.));
#1362=DIRECTION('center_axis',(0.,0.,-1.));
#1363=DIRECTION('ref_axis',(-1.,0.,0.));
#1364=DIRECTION('',(0.,0.,1.));
#1365=DIRECTION('center_axis',(0.,1.,0.));
#1366=DIRECTION('ref_axis',(-1.,0.,0.));
#1367=DIRECTION('',(1.,0.,0.));
#1368=DIRECTION('',(-1.,0.,0.));
#1369=DIRECTION('',(0.,0.,1.));
#1370=DIRECTION('center_axis',(0.,0.,1.));
#1371=DIRECTION('ref_axis',(0.,-1.,0.));
#1372=DIRECTION('center_axis',(0.,0.,1.));
#1373=DIRECTION('ref_axis',(0.,-1.,0.));
#1374=DIRECTION('center_axis',(0.,0.,-1.));
#1375=DIRECTION('ref_axis',(0.,-1.,0.));
#1376=DIRECTION('',(0.,0.,1.));
#1377=DIRECTION('center_axis',(-1.,0.,0.));
#1378=DIRECTION('ref_axis',(0.,-1.,0.));
#1379=DIRECTION('',(0.,-1.,0.));
#1380=DIRECTION('',(0.,-1.,0.));
#1381=DIRECTION('',(0.,0.,1.));
#1382=DIRECTION('center_axis',(0.,0.,1.));
#1383=DIRECTION('ref_axis',(1.,0.,0.));
#1384=DIRECTION('center_axis',(0.,0.,1.));
#1385=DIRECTION('ref_axis',(1.,0.,0.));
#1386=DIRECTION('center_axis',(0.,0.,-1.));
#1387=DIRECTION('ref_axis',(1.,0.,0.));
#1388=DIRECTION('',(0.,0.,1.));
#1389=DIRECTION('center_axis',(0.,-1.,0.));
#1390=DIRECTION('ref_axis',(1.,0.,0.));
#1391=DIRECTION('',(1.,0.,0.));
#1392=DIRECTION('',(1.,0.,0.));
#1393=DIRECTION('center_axis',(0.,0.,1.));
#1394=DIRECTION('ref_axis',(1.,0.,0.));
#1395=DIRECTION('center_axis',(0.,0.,1.));
#1396=DIRECTION('ref_axis',(1.,0.,0.));
#1397=DIRECTION('',(0.,0.,1.));
#1398=DIRECTION('',(1.,0.,0.));
#1399=DIRECTION('',(-5.5511151231258E-17,-3.46944695195358E-16,0.999999999999992));
#1400=DIRECTION('',(-2.19269047363469E-15,0.999999999999999,3.4694469519536E-16));
#1401=CARTESIAN_POINT('',(0.,0.,0.));
#1402=CARTESIAN_POINT('',(0.,0.,0.));
#1403=CARTESIAN_POINT('Origin',(15.,80.,13.));
#1404=CARTESIAN_POINT('',(15.,80.,13.));
#1405=CARTESIAN_POINT('',(15.,70.,13.));
#1406=CARTESIAN_POINT('',(15.,57.5,13.));
#1407=CARTESIAN_POINT('',(15.,80.,3.));
#1408=CARTESIAN_POINT('',(15.,80.,6.5));
#1409=CARTESIAN_POINT('',(15.,70.,3.));
#1410=CARTESIAN_POINT('',(15.,70.,3.));
#1411=CARTESIAN_POINT('',(15.,70.,6.5));
#1412=CARTESIAN_POINT('Origin',(22.75,35.,13.));
#1413=CARTESIAN_POINT('',(0.,0.,13.));
#1414=CARTESIAN_POINT('',(0.,80.,13.));
#1415=CARTESIAN_POINT('',(0.,0.,13.));
#1416=CARTESIAN_POINT('',(-10.,80.,13.));
#1417=CARTESIAN_POINT('',(55.5,80.,13.));
#1418=CARTESIAN_POINT('',(-10.,-10.,13.));
#1419=CARTESIAN_POINT('',(-10.,80.,13.));
#1420=CARTESIAN_POINT('',(55.5,-10.,13.));
#1421=CARTESIAN_POINT('',(-10.,-10.,13.));
#1422=CARTESIAN_POINT('',(55.5,80.,13.));
#1423=CARTESIAN_POINT('',(55.5,-10.,13.));
#1424=CARTESIAN_POINT('',(55.5,80.,13.));
#1425=CARTESIAN_POINT('',(45.5,70.,13.));
#1426=CARTESIAN_POINT('',(0.,70.,13.));
#1427=CARTESIAN_POINT('',(45.5,0.,13.));
#1428=CARTESIAN_POINT('',(45.5,0.,13.));
#1429=CARTESIAN_POINT('',(0.,0.,13.));
#1430=CARTESIAN_POINT('',(48.55,75.,13.));
#1431=CARTESIAN_POINT('Origin',(50.,75.,13.));
#1432=CARTESIAN_POINT('',(-6.45,-5.,13.));
#1433=CARTESIAN_POINT('Origin',(-5.,-5.,13.));
#1434=CARTESIAN_POINT('',(-6.45,75.,13.));
#1435=CARTESIAN_POINT('Origin',(-5.,75.,13.));
#1436=CARTESIAN_POINT('',(48.55,-5.,13.));
#1437=CARTESIAN_POINT('Origin',(50.,-5.,13.));
#1438=CARTESIAN_POINT('Origin',(55.5,80.,0.));
#1439=CARTESIAN_POINT('',(0.,80.,3.));
#1440=CARTESIAN_POINT('',(0.,80.,6.5));
#1441=CARTESIAN_POINT('',(31.5,80.,3.));
#1442=CARTESIAN_POINT('',(55.5,80.,0.));
#1443=CARTESIAN_POINT('',(55.5,80.,0.));
#1444=CARTESIAN_POINT('',(-10.,80.,0.));
#1445=CARTESIAN_POINT('',(55.5,80.,0.));
#1446=CARTESIAN_POINT('',(-10.,80.,0.));
#1447=CARTESIAN_POINT('Origin',(22.75,35.,3.));
#1448=CARTESIAN_POINT('',(0.,0.,3.));
#1449=CARTESIAN_POINT('',(0.,80.,3.));
#1450=CARTESIAN_POINT('',(45.5,0.,3.));
#1451=CARTESIAN_POINT('',(34.125,0.,3.));
#1452=CARTESIAN_POINT('',(45.5,70.,3.));
#1453=CARTESIAN_POINT('',(45.5,52.5,3.));
#1454=CARTESIAN_POINT('',(11.375,70.,3.));
#1455=CARTESIAN_POINT('Origin',(45.5,0.,0.));
#1456=CARTESIAN_POINT('',(0.,0.,0.));
#1457=CARTESIAN_POINT('',(45.5,0.,0.));
#1458=CARTESIAN_POINT('Origin',(0.,0.,0.));
#1459=CARTESIAN_POINT('Origin',(50.,75.,0.));
#1460=CARTESIAN_POINT('',(48.55,75.,0.));
#1461=CARTESIAN_POINT('',(48.55,75.,0.));
#1462=CARTESIAN_POINT('Origin',(50.,75.,0.));
#1463=CARTESIAN_POINT('Origin',(-5.,-5.,0.));
#1464=CARTESIAN_POINT('',(-6.45,-5.,0.));
#1465=CARTESIAN_POINT('',(-6.45,-5.,0.));
#1466=CARTESIAN_POINT('Origin',(-5.,-5.,0.));
#1467=CARTESIAN_POINT('Origin',(45.5,70.,0.));
#1468=CARTESIAN_POINT('',(45.5,70.,0.));
#1469=CARTESIAN_POINT('Origin',(0.,70.,0.));
#1470=CARTESIAN_POINT('Origin',(-5.,75.,0.));
#1471=CARTESIAN_POINT('',(-6.45,75.,0.));
#1472=CARTESIAN_POINT('',(-6.45,75.,0.));
#1473=CARTESIAN_POINT('Origin',(-5.,75.,0.));
#1474=CARTESIAN_POINT('Origin',(50.,-5.,0.));
#1475=CARTESIAN_POINT('',(48.55,-5.,0.));
#1476=CARTESIAN_POINT('',(48.55,-5.,0.));
#1477=CARTESIAN_POINT('Origin',(50.,-5.,0.));
#1478=CARTESIAN_POINT('Origin',(55.5,-10.,0.));
#1479=CARTESIAN_POINT('',(55.5,-10.,0.));
#1480=CARTESIAN_POINT('',(55.5,-10.,0.));
#1481=CARTESIAN_POINT('',(55.5,-10.,0.));
#1482=CARTESIAN_POINT('Origin',(-10.,-10.,0.));
#1483=CARTESIAN_POINT('',(-10.,-10.,0.));
#1484=CARTESIAN_POINT('',(-10.,-10.,0.));
#1485=CARTESIAN_POINT('',(-10.,-10.,0.));
#1486=CARTESIAN_POINT('Origin',(-10.,80.,0.));
#1487=CARTESIAN_POINT('',(-10.,80.,0.));
#1488=CARTESIAN_POINT('Origin',(22.75,35.,0.));
#1489=CARTESIAN_POINT('',(0.,0.,0.));
#1490=CARTESIAN_POINT('Origin',(70.,7.75,3.));
#1491=CARTESIAN_POINT('',(-10.3209303023327,7.75,0.));
#1492=CARTESIAN_POINT('',(70.,7.75,0.));
#1493=CARTESIAN_POINT('',(49.2875,7.75,0.));
#1494=CARTESIAN_POINT('',(-10.3209303023327,7.75,3.));
#1495=CARTESIAN_POINT('',(-10.3209303023327,7.75,3.));
#1496=CARTESIAN_POINT('',(70.,7.75,3.));
#1497=CARTESIAN_POINT('',(49.2875,7.75,3.));
#1498=CARTESIAN_POINT('',(70.,7.75,3.));
#1499=CARTESIAN_POINT('Origin',(70.,35.,3.));
#1500=CARTESIAN_POINT('',(70.,35.,0.));
#1501=CARTESIAN_POINT('',(70.,12.7375,0.));
#1502=CARTESIAN_POINT('',(70.,35.,3.));
#1503=CARTESIAN_POINT('',(70.,12.7375,3.));
#1504=CARTESIAN_POINT('',(70.,35.,3.));
#1505=CARTESIAN_POINT('Origin',(-10.3209303023327,35.,3.));
#1506=CARTESIAN_POINT('',(-10.3209303023327,35.,0.));
#1507=CARTESIAN_POINT('',(9.12703484883365,35.,0.));
#1508=CARTESIAN_POINT('',(-10.3209303023327,35.,3.));
#1509=CARTESIAN_POINT('',(9.12703484883365,35.,3.));
#1510=CARTESIAN_POINT('',(-10.3209303023327,35.,3.));
#1511=CARTESIAN_POINT('Origin',(-10.3209303023327,7.75,3.));
#1512=CARTESIAN_POINT('',(-10.3209303023327,-0.887499999999999,0.));
#1513=CARTESIAN_POINT('',(-10.3209303023327,-0.887499999999999,3.));
#1514=CARTESIAN_POINT('Origin',(-15.,-25.,3.));
#1515=CARTESIAN_POINT('',(-15.,-25.,3.));
#1516=CARTESIAN_POINT('',(-15.,40.5,3.));
#1517=CARTESIAN_POINT('',(-15.,-25.,3.));
#1518=CARTESIAN_POINT('',(-15.,40.5,0.));
#1519=CARTESIAN_POINT('',(-15.,40.5,3.));
#1520=CARTESIAN_POINT('',(-15.,-25.,0.));
#1521=CARTESIAN_POINT('',(-15.,-25.,0.));
#1522=CARTESIAN_POINT('',(-15.,-25.,3.));
#1523=CARTESIAN_POINT('Origin',(75.,-25.,3.));
#1524=CARTESIAN_POINT('',(75.,-25.,3.));
#1525=CARTESIAN_POINT('',(75.,-25.,3.));
#1526=CARTESIAN_POINT('',(75.,-25.,0.));
#1527=CARTESIAN_POINT('',(75.,-25.,0.));
#1528=CARTESIAN_POINT('',(75.,-25.,3.));
#1529=CARTESIAN_POINT('Origin',(75.,40.5,3.));
#1530=CARTESIAN_POINT('',(75.,40.5,3.));
#1531=CARTESIAN_POINT('',(75.,40.5,3.));
#1532=CARTESIAN_POINT('',(75.,40.5,0.));
#1533=CARTESIAN_POINT('',(75.,40.5,0.));
#1534=CARTESIAN_POINT('',(75.,40.5,3.));
#1535=CARTESIAN_POINT('Origin',(-15.,40.5,3.));
#1536=CARTESIAN_POINT('',(-15.,40.5,3.));
#1537=CARTESIAN_POINT('',(-15.,40.5,0.));
#1538=CARTESIAN_POINT('Origin',(22.075,-3.025,0.));
#1539=CARTESIAN_POINT('',(22.075,-2.525,0.));
#1540=CARTESIAN_POINT('',(21.575,-3.025,0.));
#1541=CARTESIAN_POINT('Origin',(22.075,-3.025,0.));
#1542=CARTESIAN_POINT('',(22.075,-2.525,3.));
#1543=CARTESIAN_POINT('',(22.075,-2.525,0.));
#1544=CARTESIAN_POINT('',(21.575,-3.025,3.));
#1545=CARTESIAN_POINT('Origin',(22.075,-3.025,3.));
#1546=CARTESIAN_POINT('',(21.575,-3.025,0.));
#1547=CARTESIAN_POINT('Origin',(21.575,-16.025,0.));
#1548=CARTESIAN_POINT('',(21.575,-16.025,0.));
#1549=CARTESIAN_POINT('',(21.575,-3.025,0.));
#1550=CARTESIAN_POINT('',(21.575,-16.025,3.));
#1551=CARTESIAN_POINT('',(21.575,-3.025,3.));
#1552=CARTESIAN_POINT('',(21.575,-16.025,0.));
#1553=CARTESIAN_POINT('Origin',(22.075,-16.025,0.));
#1554=CARTESIAN_POINT('',(22.075,-16.525,0.));
#1555=CARTESIAN_POINT('Origin',(22.075,-16.025,0.));
#1556=CARTESIAN_POINT('',(22.075,-16.525,3.));
#1557=CARTESIAN_POINT('Origin',(22.075,-16.025,3.));
#1558=CARTESIAN_POINT('',(22.075,-16.525,0.));
#1559=CARTESIAN_POINT('Origin',(35.075,-16.525,0.));
#1560=CARTESIAN_POINT('',(35.075,-16.525,0.));
#1561=CARTESIAN_POINT('',(22.075,-16.525,0.));
#1562=CARTESIAN_POINT('',(35.075,-16.525,3.));
#1563=CARTESIAN_POINT('',(22.075,-16.525,3.));
#1564=CARTESIAN_POINT('',(35.075,-16.525,0.));
#1565=CARTESIAN_POINT('Origin',(35.075,-16.025,0.));
#1566=CARTESIAN_POINT('',(35.575,-16.025,0.));
#1567=CARTESIAN_POINT('Origin',(35.075,-16.025,0.));
#1568=CARTESIAN_POINT('',(35.575,-16.025,3.));
#1569=CARTESIAN_POINT('Origin',(35.075,-16.025,3.));
#1570=CARTESIAN_POINT('',(35.575,-16.025,0.));
#1571=CARTESIAN_POINT('Origin',(35.575,-3.025,0.));
#1572=CARTESIAN_POINT('',(35.575,-3.025,0.));
#1573=CARTESIAN_POINT('',(35.575,-3.025,0.));
#1574=CARTESIAN_POINT('',(35.575,-3.025,3.));
#1575=CARTESIAN_POINT('',(35.575,-3.025,3.));
#1576=CARTESIAN_POINT('',(35.575,-3.025,0.));
#1577=CARTESIAN_POINT('Origin',(35.075,-3.025,0.));
#1578=CARTESIAN_POINT('',(35.075,-2.525,0.));
#1579=CARTESIAN_POINT('Origin',(35.075,-3.025,0.));
#1580=CARTESIAN_POINT('',(35.075,-2.525,3.));
#1581=CARTESIAN_POINT('Origin',(35.075,-3.025,3.));
#1582=CARTESIAN_POINT('',(35.075,-2.525,0.));
#1583=CARTESIAN_POINT('Origin',(22.075,-2.525,0.));
#1584=CARTESIAN_POINT('',(22.075,-2.525,0.));
#1585=CARTESIAN_POINT('',(22.075,-2.525,3.));
#1586=CARTESIAN_POINT('Origin',(41.125,-3.025,0.));
#1587=CARTESIAN_POINT('',(41.125,-2.525,0.));
#1588=CARTESIAN_POINT('',(40.625,-3.025,0.));
#1589=CARTESIAN_POINT('Origin',(41.125,-3.025,0.));
#1590=CARTESIAN_POINT('',(41.125,-2.525,3.));
#1591=CARTESIAN_POINT('',(41.125,-2.525,0.));
#1592=CARTESIAN_POINT('',(40.625,-3.025,3.));
#1593=CARTESIAN_POINT('Origin',(41.125,-3.025,3.));
#1594=CARTESIAN_POINT('',(40.625,-3.025,0.));
#1595=CARTESIAN_POINT('Origin',(40.625,-16.025,0.));
#1596=CARTESIAN_POINT('',(40.625,-16.025,0.));
#1597=CARTESIAN_POINT('',(40.625,-3.025,0.));
#1598=CARTESIAN_POINT('',(40.625,-16.025,3.));
#1599=CARTESIAN_POINT('',(40.625,-3.025,3.));
#1600=CARTESIAN_POINT('',(40.625,-16.025,0.));
#1601=CARTESIAN_POINT('Origin',(41.125,-16.025,0.));
#1602=CARTESIAN_POINT('',(41.125,-16.525,0.));
#1603=CARTESIAN_POINT('Origin',(41.125,-16.025,0.));
#1604=CARTESIAN_POINT('',(41.125,-16.525,3.));
#1605=CARTESIAN_POINT('Origin',(41.125,-16.025,3.));
#1606=CARTESIAN_POINT('',(41.125,-16.525,0.));
#1607=CARTESIAN_POINT('Origin',(54.125,-16.525,0.));
#1608=CARTESIAN_POINT('',(54.125,-16.525,0.));
#1609=CARTESIAN_POINT('',(41.125,-16.525,0.));
#1610=CARTESIAN_POINT('',(54.125,-16.525,3.));
#1611=CARTESIAN_POINT('',(41.125,-16.525,3.));
#1612=CARTESIAN_POINT('',(54.125,-16.525,0.));
#1613=CARTESIAN_POINT('Origin',(54.125,-16.025,0.));
#1614=CARTESIAN_POINT('',(54.625,-16.025,0.));
#1615=CARTESIAN_POINT('Origin',(54.125,-16.025,0.));
#1616=CARTESIAN_POINT('',(54.625,-16.025,3.));
#1617=CARTESIAN_POINT('Origin',(54.125,-16.025,3.));
#1618=CARTESIAN_POINT('',(54.625,-16.025,0.));
#1619=CARTESIAN_POINT('Origin',(54.625,-3.025,0.));
#1620=CARTESIAN_POINT('',(54.625,-3.025,0.));
#1621=CARTESIAN_POINT('',(54.625,-3.025,0.));
#1622=CARTESIAN_POINT('',(54.625,-3.025,3.));
#1623=CARTESIAN_POINT('',(54.625,-3.025,3.));
#1624=CARTESIAN_POINT('',(54.625,-3.025,0.));
#1625=CARTESIAN_POINT('Origin',(54.125,-3.025,0.));
#1626=CARTESIAN_POINT('',(54.125,-2.525,0.));
#1627=CARTESIAN_POINT('Origin',(54.125,-3.025,0.));
#1628=CARTESIAN_POINT('',(54.125,-2.525,3.));
#1629=CARTESIAN_POINT('Origin',(54.125,-3.025,3.));
#1630=CARTESIAN_POINT('',(54.125,-2.525,0.));
#1631=CARTESIAN_POINT('Origin',(41.125,-2.525,0.));
#1632=CARTESIAN_POINT('',(41.125,-2.525,0.));
#1633=CARTESIAN_POINT('',(41.125,-2.525,3.));
#1634=CARTESIAN_POINT('Origin',(3.025,-3.025,0.));
#1635=CARTESIAN_POINT('',(3.025,-2.525,0.));
#1636=CARTESIAN_POINT('',(2.525,-3.025,0.));
#1637=CARTESIAN_POINT('Origin',(3.025,-3.025,0.));
#1638=CARTESIAN_POINT('',(3.025,-2.525,3.));
#1639=CARTESIAN_POINT('',(3.025,-2.525,0.));
#1640=CARTESIAN_POINT('',(2.525,-3.025,3.));
#1641=CARTESIAN_POINT('Origin',(3.025,-3.025,3.));
#1642=CARTESIAN_POINT('',(2.525,-3.025,0.));
#1643=CARTESIAN_POINT('Origin',(2.525,-16.025,0.));
#1644=CARTESIAN_POINT('',(2.525,-16.025,0.));
#1645=CARTESIAN_POINT('',(2.525,-3.025,0.));
#1646=CARTESIAN_POINT('',(2.525,-16.025,3.));
#1647=CARTESIAN_POINT('',(2.525,-3.025,3.));
#1648=CARTESIAN_POINT('',(2.525,-16.025,0.));
#1649=CARTESIAN_POINT('Origin',(3.025,-16.025,0.));
#1650=CARTESIAN_POINT('',(3.025,-16.525,0.));
#1651=CARTESIAN_POINT('Origin',(3.025,-16.025,0.));
#1652=CARTESIAN_POINT('',(3.025,-16.525,3.));
#1653=CARTESIAN_POINT('Origin',(3.025,-16.025,3.));
#1654=CARTESIAN_POINT('',(3.025,-16.525,0.));
#1655=CARTESIAN_POINT('Origin',(16.025,-16.525,0.));
#1656=CARTESIAN_POINT('',(16.025,-16.525,0.));
#1657=CARTESIAN_POINT('',(3.025,-16.525,0.));
#1658=CARTESIAN_POINT('',(16.025,-16.525,3.));
#1659=CARTESIAN_POINT('',(3.025,-16.525,3.));
#1660=CARTESIAN_POINT('',(16.025,-16.525,0.));
#1661=CARTESIAN_POINT('Origin',(16.025,-16.025,0.));
#1662=CARTESIAN_POINT('',(16.525,-16.025,0.));
#1663=CARTESIAN_POINT('Origin',(16.025,-16.025,0.));
#1664=CARTESIAN_POINT('',(16.525,-16.025,3.));
#1665=CARTESIAN_POINT('Origin',(16.025,-16.025,3.));
#1666=CARTESIAN_POINT('',(16.525,-16.025,0.));
#1667=CARTESIAN_POINT('Origin',(16.525,-3.025,0.));
#1668=CARTESIAN_POINT('',(16.525,-3.025,0.));
#1669=CARTESIAN_POINT('',(16.525,-3.025,0.));
#1670=CARTESIAN_POINT('',(16.525,-3.025,3.));
#1671=CARTESIAN_POINT('',(16.525,-3.025,3.));
#1672=CARTESIAN_POINT('',(16.525,-3.025,0.));
#1673=CARTESIAN_POINT('Origin',(16.025,-3.025,0.));
#1674=CARTESIAN_POINT('',(16.025,-2.525,0.));
#1675=CARTESIAN_POINT('Origin',(16.025,-3.025,0.));
#1676=CARTESIAN_POINT('',(16.025,-2.525,3.));
#1677=CARTESIAN_POINT('Origin',(16.025,-3.025,3.));
#1678=CARTESIAN_POINT('',(16.025,-2.525,0.));
#1679=CARTESIAN_POINT('Origin',(3.025,-2.525,0.));
#1680=CARTESIAN_POINT('',(3.025,-2.525,0.));
#1681=CARTESIAN_POINT('',(3.025,-2.525,3.));
#1682=CARTESIAN_POINT('Origin',(28.575,-9.525,3.));
#1683=CARTESIAN_POINT('Origin',(28.575,-9.525,0.));
#1684=CARTESIAN_POINT('',(0.,0.,0.));
#1685=CARTESIAN_POINT('',(30.6510534041428,4.85435777224781,13.));
#1686=UNCERTAINTY_MEASURE_WITH_UNIT(LENGTH_MEASURE(0.01),#1694,
'DISTANCE_ACCURACY_VALUE',
'Maximum model space distance between geometric entities at asserted c
onnectivities');
#1687=UNCERTAINTY_MEASURE_WITH_UNIT(LENGTH_MEASURE(0.01),#1694,
'DISTANCE_ACCURACY_VALUE',
'Maximum model space distance between geometric entities at asserted c
onnectivities');
#1688=UNCERTAINTY_MEASURE_WITH_UNIT(LENGTH_MEASURE(0.01),#1694,
'DISTANCE_ACCURACY_VALUE',
'Maximum model space distance between geometric entities at asserted c
onnectivities');
#1689=UNCERTAINTY_MEASURE_WITH_UNIT(LENGTH_MEASURE(0.01),#1694,
'DISTANCE_ACCURACY_VALUE',
'Maximum model space distance between geometric entities at asserted c
onnectivities');
#1690=(
GEOMETRIC_REPRESENTATION_CONTEXT(3)
GLOBAL_UNCERTAINTY_ASSIGNED_CONTEXT((#1686))
GLOBAL_UNIT_ASSIGNED_CONTEXT((#1694,#1696,#1697))
REPRESENTATION_CONTEXT('','3D')
);
#1691=(
GEOMETRIC_REPRESENTATION_CONTEXT(3)
GLOBAL_UNCERTAINTY_ASSIGNED_CONTEXT((#1687))
GLOBAL_UNIT_ASSIGNED_CONTEXT((#1694,#1696,#1697))
REPRESENTATION_CONTEXT('','3D')
);
#1692=(
GEOMETRIC_REPRESENTATION_CONTEXT(3)
GLOBAL_UNCERTAINTY_ASSIGNED_CONTEXT((#1688))
GLOBAL_UNIT_ASSIGNED_CONTEXT((#1694,#1696,#1697))
REPRESENTATION_CONTEXT('','3D')
);
#1693=(
GEOMETRIC_REPRESENTATION_CONTEXT(3)
GLOBAL_UNCERTAINTY_ASSIGNED_CONTEXT((#1689))
GLOBAL_UNIT_ASSIGNED_CONTEXT((#1694,#1696,#1697))
REPRESENTATION_CONTEXT('','3D')
);
#1694=(
LENGTH_UNIT()
NAMED_UNIT(*)
SI_UNIT(.MILLI.,.METRE.)
);
#1695=(
LENGTH_UNIT()
NAMED_UNIT(*)
SI_UNIT($,.METRE.)
);
#1696=(
NAMED_UNIT(*)
PLANE_ANGLE_UNIT()
SI_UNIT($,.RADIAN.)
);
#1697=(
NAMED_UNIT(*)
SI_UNIT($,.STERADIAN.)
SOLID_ANGLE_UNIT()
);
#1698=SHAPE_DEFINITION_REPRESENTATION(#1701,#1706);
#1699=SHAPE_DEFINITION_REPRESENTATION(#1702,#1707);
#1700=SHAPE_DEFINITION_REPRESENTATION(#1703,#1708);
#1701=PRODUCT_DEFINITION_SHAPE('',$,#1710);
#1702=PRODUCT_DEFINITION_SHAPE('',$,#1711);
#1703=PRODUCT_DEFINITION_SHAPE('',$,#1712);
#1704=PRODUCT_DEFINITION_SHAPE($,$,#17);
#1705=PRODUCT_DEFINITION_SHAPE($,$,#18);
#1706=SHAPE_REPRESENTATION('',(#1034,#1119,#1120),#1690);
#1707=SHAPE_REPRESENTATION('',(#1035),#1691);
#1708=SHAPE_REPRESENTATION('',(#1060),#1692);
#1709=PRODUCT_DEFINITION_CONTEXT('part definition',#1720,'design');
#1710=PRODUCT_DEFINITION('corepad (Assembly)','corepad (Assembly) v2',#1713,
#1709);
#1711=PRODUCT_DEFINITION('corepad','corepad v2',#1714,#1709);
#1712=PRODUCT_DEFINITION('plate-2026-06-12T22_15_53.887Z',
'plate-2026-06-12T22_15_53.887Z v2',#1715,#1709);
#1713=PRODUCT_DEFINITION_FORMATION('',$,#1722);
#1714=PRODUCT_DEFINITION_FORMATION('',$,#1723);
#1715=PRODUCT_DEFINITION_FORMATION('',$,#1724);
#1716=PRODUCT_RELATED_PRODUCT_CATEGORY('corepad (Assembly) v2',
'corepad (Assembly) v2',(#1722));
#1717=PRODUCT_RELATED_PRODUCT_CATEGORY('corepad v2','corepad v2',(#1723));
#1718=PRODUCT_RELATED_PRODUCT_CATEGORY(
'plate-2026-06-12T22_15_53.887Z v2','plate-2026-06-12T22_15_53.887Z v2',
(#1724));
#1719=APPLICATION_PROTOCOL_DEFINITION('international standard',
'automotive_design',2009,#1720);
#1720=APPLICATION_CONTEXT(
'Core Data for Automotive Mechanical Design Process');
#1721=PRODUCT_CONTEXT('part definition',#1720,'mechanical');
#1722=PRODUCT('corepad (Assembly)','corepad (Assembly) v2',$,(#1721));
#1723=PRODUCT('corepad','corepad v2',$,(#1721));
#1724=PRODUCT('plate-2026-06-12T22_15_53.887Z',
'plate-2026-06-12T22_15_53.887Z v2',$,(#1721));
#1725=PRESENTATION_STYLE_ASSIGNMENT((#1726));
#1726=SURFACE_STYLE_USAGE(.BOTH.,#1727);
#1727=SURFACE_SIDE_STYLE('',(#1728));
#1728=SURFACE_STYLE_FILL_AREA(#1729);
#1729=FILL_AREA_STYLE('Steel - Satin',(#1730));
#1730=FILL_AREA_STYLE_COLOUR('Steel - Satin',#1731);
#1731=COLOUR_RGB('Steel - Satin',0.627450980392157,0.627450980392157,0.627450980392157);
ENDSEC;
END-ISO-10303-21;
